<mxfile host="app.diagrams.net" modified="2024-05-23T13:17:06.144Z" agent="Mozilla/5.0 (Windows NT 10.0; Win64; x64) AppleWebKit/537.36 (KHTML, like Gecko) Chrome/125.0.0.0 Safari/537.36" etag="pB7mc_cJHaxK1hyDLms7" version="24.4.6" type="device">
  <diagram name="Page-1" id="yeIynWIioCOtXMINL2UE">
    <mxGraphModel dx="1434" dy="772" grid="1" gridSize="10" guides="1" tooltips="1" connect="1" arrows="1" fold="1" page="1" pageScale="1" pageWidth="850" pageHeight="1100" math="0" shadow="0">
      <root>
        <mxCell id="0" />
        <mxCell id="1" parent="0" />
        <mxCell id="DCs21OaQfldYmCM0jBAA-1" value="" style="whiteSpace=wrap;html=1;fillColor=none;" parent="1" vertex="1">
          <mxGeometry x="101" y="10" width="309" height="330" as="geometry" />
        </mxCell>
        <mxCell id="DCs21OaQfldYmCM0jBAA-2" value="hwdbg chip" style="text;html=1;align=center;verticalAlign=middle;whiteSpace=wrap;rounded=0;fontStyle=1;fontSize=19;" parent="1" vertex="1">
          <mxGeometry x="247.5" y="305" width="168.5" height="30" as="geometry" />
        </mxCell>
        <mxCell id="DCs21OaQfldYmCM0jBAA-4" value="" style="endArrow=classic;html=1;rounded=0;strokeWidth=2;" parent="1" edge="1">
          <mxGeometry width="50" height="50" relative="1" as="geometry">
            <mxPoint x="10" y="50" as="sourcePoint" />
            <mxPoint x="100" y="50" as="targetPoint" />
          </mxGeometry>
        </mxCell>
        <mxCell id="DCs21OaQfldYmCM0jBAA-5" value="clock" style="text;strokeColor=none;fillColor=none;align=left;verticalAlign=middle;spacingLeft=4;spacingRight=4;overflow=hidden;points=[[0,0.5],[1,0.5]];portConstraint=eastwest;rotatable=0;whiteSpace=wrap;html=1;" parent="1" vertex="1">
          <mxGeometry x="100" y="35" width="80" height="30" as="geometry" />
        </mxCell>
        <mxCell id="DCs21OaQfldYmCM0jBAA-8" value="" style="endArrow=classic;html=1;rounded=0;strokeWidth=2;" parent="1" edge="1">
          <mxGeometry width="50" height="50" relative="1" as="geometry">
            <mxPoint x="10" y="80" as="sourcePoint" />
            <mxPoint x="100" y="80" as="targetPoint" />
          </mxGeometry>
        </mxCell>
        <mxCell id="DCs21OaQfldYmCM0jBAA-9" value="reset" style="text;strokeColor=none;fillColor=none;align=left;verticalAlign=middle;spacingLeft=4;spacingRight=4;overflow=hidden;points=[[0,0.5],[1,0.5]];portConstraint=eastwest;rotatable=0;whiteSpace=wrap;html=1;" parent="1" vertex="1">
          <mxGeometry x="100" y="65" width="80" height="30" as="geometry" />
        </mxCell>
        <mxCell id="DCs21OaQfldYmCM0jBAA-13" value="" style="endArrow=classic;html=1;rounded=0;strokeWidth=2;" parent="1" edge="1">
          <mxGeometry width="50" height="50" relative="1" as="geometry">
            <mxPoint x="10" y="109" as="sourcePoint" />
            <mxPoint x="100" y="109" as="targetPoint" />
          </mxGeometry>
        </mxCell>
        <mxCell id="DCs21OaQfldYmCM0jBAA-14" value="io_en" style="text;strokeColor=none;fillColor=none;align=left;verticalAlign=middle;spacingLeft=4;spacingRight=4;overflow=hidden;points=[[0,0.5],[1,0.5]];portConstraint=eastwest;rotatable=0;whiteSpace=wrap;html=1;" parent="1" vertex="1">
          <mxGeometry x="100" y="94" width="80" height="30" as="geometry" />
        </mxCell>
        <mxCell id="DCs21OaQfldYmCM0jBAA-15" value="" style="endArrow=classic;html=1;rounded=0;strokeWidth=2;" parent="1" edge="1">
          <mxGeometry width="50" height="50" relative="1" as="geometry">
            <mxPoint x="10" y="139" as="sourcePoint" />
            <mxPoint x="100" y="139" as="targetPoint" />
          </mxGeometry>
        </mxCell>
        <mxCell id="DCs21OaQfldYmCM0jBAA-16" value="io_plInSignal" style="text;strokeColor=none;fillColor=none;align=left;verticalAlign=middle;spacingLeft=4;spacingRight=4;overflow=hidden;points=[[0,0.5],[1,0.5]];portConstraint=eastwest;rotatable=0;whiteSpace=wrap;html=1;" parent="1" vertex="1">
          <mxGeometry x="100" y="124" width="80" height="30" as="geometry" />
        </mxCell>
        <mxCell id="DCs21OaQfldYmCM0jBAA-17" value="" style="endArrow=classic;html=1;rounded=0;strokeWidth=2;" parent="1" edge="1">
          <mxGeometry width="50" height="50" relative="1" as="geometry">
            <mxPoint x="100" y="169" as="sourcePoint" />
            <mxPoint x="10" y="169" as="targetPoint" />
          </mxGeometry>
        </mxCell>
        <mxCell id="DCs21OaQfldYmCM0jBAA-18" value="io_psOutInterrupt" style="text;strokeColor=none;fillColor=none;align=left;verticalAlign=middle;spacingLeft=4;spacingRight=4;overflow=hidden;points=[[0,0.5],[1,0.5]];portConstraint=eastwest;rotatable=0;whiteSpace=wrap;html=1;" parent="1" vertex="1">
          <mxGeometry x="100" y="154" width="110" height="30" as="geometry" />
        </mxCell>
        <mxCell id="DCs21OaQfldYmCM0jBAA-19" value="" style="endArrow=classic;html=1;rounded=0;strokeWidth=2;" parent="1" edge="1">
          <mxGeometry width="50" height="50" relative="1" as="geometry">
            <mxPoint x="10" y="199" as="sourcePoint" />
            <mxPoint x="100" y="199" as="targetPoint" />
          </mxGeometry>
        </mxCell>
        <mxCell id="DCs21OaQfldYmCM0jBAA-20" value="io_rdData[32:0]" style="text;strokeColor=none;fillColor=none;align=left;verticalAlign=middle;spacingLeft=4;spacingRight=4;overflow=hidden;points=[[0,0.5],[1,0.5]];portConstraint=eastwest;rotatable=0;whiteSpace=wrap;html=1;" parent="1" vertex="1">
          <mxGeometry x="100" y="184" width="80" height="30" as="geometry" />
        </mxCell>
        <mxCell id="DCs21OaQfldYmCM0jBAA-21" value="" style="endArrow=classic;html=1;rounded=0;strokeWidth=2;" parent="1" edge="1">
          <mxGeometry width="50" height="50" relative="1" as="geometry">
            <mxPoint x="100" y="229" as="sourcePoint" />
            <mxPoint x="10" y="229" as="targetPoint" />
          </mxGeometry>
        </mxCell>
        <mxCell id="DCs21OaQfldYmCM0jBAA-22" value="io_rdWrAddr[12:0]" style="text;strokeColor=none;fillColor=none;align=left;verticalAlign=middle;spacingLeft=4;spacingRight=4;overflow=hidden;points=[[0,0.5],[1,0.5]];portConstraint=eastwest;rotatable=0;whiteSpace=wrap;html=1;" parent="1" vertex="1">
          <mxGeometry x="100" y="214" width="110" height="30" as="geometry" />
        </mxCell>
        <mxCell id="DCs21OaQfldYmCM0jBAA-23" value="" style="endArrow=classic;html=1;rounded=0;strokeWidth=2;" parent="1" edge="1">
          <mxGeometry width="50" height="50" relative="1" as="geometry">
            <mxPoint x="100" y="259" as="sourcePoint" />
            <mxPoint x="10" y="259" as="targetPoint" />
          </mxGeometry>
        </mxCell>
        <mxCell id="DCs21OaQfldYmCM0jBAA-24" value="io_wrEna" style="text;strokeColor=none;fillColor=none;align=left;verticalAlign=middle;spacingLeft=4;spacingRight=4;overflow=hidden;points=[[0,0.5],[1,0.5]];portConstraint=eastwest;rotatable=0;whiteSpace=wrap;html=1;" parent="1" vertex="1">
          <mxGeometry x="100" y="244" width="110" height="30" as="geometry" />
        </mxCell>
        <mxCell id="DCs21OaQfldYmCM0jBAA-25" value="" style="endArrow=classic;html=1;rounded=0;strokeWidth=2;" parent="1" edge="1">
          <mxGeometry width="50" height="50" relative="1" as="geometry">
            <mxPoint x="100" y="290" as="sourcePoint" />
            <mxPoint x="10" y="290" as="targetPoint" />
          </mxGeometry>
        </mxCell>
        <mxCell id="DCs21OaQfldYmCM0jBAA-26" value="io_wrData[32:0]" style="text;strokeColor=none;fillColor=none;align=left;verticalAlign=middle;spacingLeft=4;spacingRight=4;overflow=hidden;points=[[0,0.5],[1,0.5]];portConstraint=eastwest;rotatable=0;whiteSpace=wrap;html=1;" parent="1" vertex="1">
          <mxGeometry x="100" y="275" width="110" height="30" as="geometry" />
        </mxCell>
        <mxCell id="DCs21OaQfldYmCM0jBAA-27" value="" style="endArrow=classic;html=1;rounded=0;strokeWidth=2;" parent="1" edge="1">
          <mxGeometry width="50" height="50" relative="1" as="geometry">
            <mxPoint x="500" y="145" as="sourcePoint" />
            <mxPoint x="410" y="145" as="targetPoint" />
          </mxGeometry>
        </mxCell>
        <mxCell id="DCs21OaQfldYmCM0jBAA-28" value="io_inputPin[M:0]" style="text;strokeColor=none;fillColor=none;align=left;verticalAlign=middle;spacingLeft=4;spacingRight=4;overflow=hidden;points=[[0,0.5],[1,0.5]];portConstraint=eastwest;rotatable=0;whiteSpace=wrap;html=1;" parent="1" vertex="1">
          <mxGeometry x="312" y="130" width="110" height="30" as="geometry" />
        </mxCell>
        <mxCell id="DCs21OaQfldYmCM0jBAA-29" value="" style="endArrow=classic;html=1;rounded=0;strokeWidth=2;" parent="1" edge="1">
          <mxGeometry width="50" height="50" relative="1" as="geometry">
            <mxPoint x="410" y="199.71" as="sourcePoint" />
            <mxPoint x="500" y="199.71" as="targetPoint" />
          </mxGeometry>
        </mxCell>
        <mxCell id="DCs21OaQfldYmCM0jBAA-30" value="io_outputPin[N:0]" style="text;strokeColor=none;fillColor=none;align=left;verticalAlign=middle;spacingLeft=4;spacingRight=4;overflow=hidden;points=[[0,0.5],[1,0.5]];portConstraint=eastwest;rotatable=0;whiteSpace=wrap;html=1;" parent="1" vertex="1">
          <mxGeometry x="306" y="185" width="110" height="30" as="geometry" />
        </mxCell>
        <mxCell id="xULpkB1AK79eMyalK54d-1" value="" style="shape=image;verticalLabelPosition=bottom;labelBackgroundColor=default;verticalAlign=top;aspect=fixed;imageAspect=0;image=data:image/png,iVBORw0KGgoAAAANSUhEUgAAB9AAAATfCAMAAABtWJwDAAADAFBMVEVMaXEAAAAAAAAAAAAAAAAAAAAAAAAAAAAAAAAAAAAAAAAAAAAAAAAAAAAAAAAAAAAAAAAAAAAAAAAAAAAAAAAAAAAAAAAAAAAAAAAAAAAAAAAAAAAAAAAAAAAAAAAAAAAAAAAAAAAAAAAAAAAAAAAAAAAAAAAAAAAAAAAAAAAAAAAAAAAAAAAAAAAAAAAAAAAAAAAAAAAAAAAAAAAAAAAAAAAAAAAAAAAAAAAAAAAAAAAAAAAAAAAAAAAAAAAAAAAAAAAAAAAAAAAAAAAAAAAAAAAAAAAAAAAAAAAAAAAAAAAAAAAAAAAAAAAAAAAAAAAAAAAAAAAAAAAAAAAAAAAAAAAAAAAAAAAAAAAAAAAAAAAAAAAAAAAAAAAAAAAAAAAAAAAAAAAAAAAAAAAAAAAAAAAAAAAAAAAAAAAAAAAAAAAAAAAAAAAAAAAAAAAAAAAAAAAAAAAAAAAAAAAAAAAAAAAAAAAAAAAAAAAAAAAAAAAAAAAAAAAAAAAAAAAAAAAAAAAAAAAAAAAAAAAAAAAAAAAAAAAAAAAAAAAAAAAAAAAAAAAAAAAAAAAAAAAAAAAAAAAAAAAAAAAAAAAAAAAAAAAAAAAAAAAAAAAAAAAAAAAAAAAAAAAAAAAAAAAAAAAAAAAAAAAAAAAAAAAAAAAAAAAAAAAAAAAAAAAAAAAAAAAAAAAAAAAAAAAAAAAAAAAAAAAAAAAAAAAAAAAAAAAAAAAAAAAAAAAAAAAAAAAAAAAAAAAAAAAAAAAAAAAAAAAAAAAAAAAAAAAAAAAAAAAAAAAAAAAAAAAAAAAAAAAAAAAAAAAAAAAAAAAAAAAAAAAAAAAAAAAAAAAAAAAAAAAAAAAAAAAAAAAAAAAAAAAAAAAAAAAAAAAAAAAAAAAAAAAAAAAAAAAAAAAAAAAAAAAAAAAAAAAAAAAAAAAAAAAAAAAAAAAAAAAAAAAAAAAAAAAAAAAAAAAAAAAAAAAAAAAAAAAAAAAAAAAAAAAAAAAAAAAAAAAAAAAAAAAAAAAAAAB+bGezAAAA/3RSTlMA5d13p1QVCl7CyjSZ/u7HATPIIv35/AID+PpX9g63trnMHJshEfIFPUnF+8FZYDjLCcSWL6pivy0GB40IJQTA907NgJH09R4U7buI8dsYZsaU5/PwheLfpu/mZckr5Dt5mA06C+uzF4mva0QQDHgSMk0PE+NBPBvhGsNsH+hvYaC8itJ7KjdVXOwkfrB22JDqnKNPRSBMi72oUybPcNNqFumEg4ZL3ixb1Z+iqz7XMI8oHdpuWJ7OnWkuP+AjVtF6KWNAfSe6Z9RCbTHZtDmlf7KCqbGVR4FzcRmuaL41XdysfFJDmtBaZJM2dYd01o5KUK2McrVIobiXX6SSUUaHoVdOAAAACXBIWXMAAAsTAAALEwEAmpwYAAAgAElEQVR4nOzdd5gUxbqA8XIZBXQXF1lYQERRERETCiqIiIGMgoqCCRVFFAOooKIoiiKKGXM+5oAJc84553zNOed0PNZ9NsGG2e2vuqtqOry/v+5z7k519QzuuzPTXaUUAAAAAAAAAAAAAAAAAAAAAAAAAAAAAAAAAAAAAAAAAAAAAAAAAAAAAAAAAAAAAAAAAAAAAAAAAAAAAAAAAAAAAAAAAAAAAAAAAAAAAAAAAAAAAAAAAAAAAAAAAAAAAAAAAAAAAAAAAAAAAAAAAAAAAAAAYq99cwCIhb6F/n0IJNriGgBioWWhfx8CiUbQAcQEQQcIOoAUIOgAQQeQAgQdIOgAUoCgAwQdQAoQdICgA0gBgg4QdAApQNABgg4gBQg6QNABpABBBwg6gBQg6ABBB5ACBB0g6ABSgKADBB1AChB0gKADSAGCDhB0AClA0AGCDiAFCDpA0AGkAEEHCDqAFCDoAEEHkAIEHSDoAFKAoAMEHUAKEHSAoANIAYIOEHQAKUDQAYIOIAUIOkDQAaQAQQcIOoAUIOgAQQeQAgQdIOgAUoCgAwQdQAoQdICgA0gBgg4QdAApQNABgg4gBQg64Dbok1oAQHRLE3SgsEFfghcAgAU5gg64RNAB+EHQAacIOgA/CDrgFEEH4AdBB5wi6AD8IOiAUwQdgB8EHXCKoAPwg6ADThF0AH4QdMApgg7AD4IOOEXQAfhB0AGnCDoAPwg64BRBB+AHQQecIugA/CDogFMEHYAfBB1wiqAD8IOgA04RdAB+EHTAKYIOwA+CDjhF0AH4QdABpwg6AD8IOuAUQQfgB0EHnCLoAPwg6IBTBB2AHwQdcIqgA/CDoANOEXQAfhB0wCmCDsAPgg44RdAB+EHQAacIOgA/CDrgFEEH4AdBB5wi6AD8IOiAUwQdgB8EHXCKoAPwg6ADThF0AH4QdMApgg7AD4IOOEXQAfhB0AGnCDoAPwg64BRBB+AHQQecIugA/CDogFMEHYAfBB1wiqAD8IOgA04RdAB+EHTAKYIOwA+CDjhF0AH4QdABpwg6AD8IOuAUQQfgB0EHnCLoAPwg6IBTBB2AHwQdcIqgA/CDoANOEXQAfhB0wCmCDsAPgg44RdAB+EHQAacIOgA/CDrgFEEH4AdBB5wi6AD8IOiAUwQdgB8EHXCKoAPwg6ADThF0AH4QdMApgg7AD4IOOEXQAfhB0AGnCDoAPwg64BRBB+AHQQecIugA/CDogFMEHYAfBB1wiqAD8IOgA04RdAB+EHTAKYIOwA+CDjhF0AH4QdABpwg6AD8IOuAUQQfgB0EHnCLoAPwg6IBTBB2AHwQdcIqgA/CDoANOEXQAfhB0wCmCDsAPgg44RdAB+EHQAacIOgA/CDrgFEEH4AdBB5wi6AD8IOiAUwQdgB8EHXCKoAPwg6ADThF0AH4QdMApgg7AD4IOOEXQAfhB0AGnCDoAPwg64BRBB+AHQQecIugA/CDogFMEHYAfBB1wiqAD8IOgA04RdAB+EHTAKYIOwA+CDjhF0AH4QdABpwg6AD8IOuAUQQfgB0EHnCLoAPwg6IBTBB2AHwQdcIqgA/CDoANOEXQAfhB0wCmCDsAPgg44RdAB+EHQAacIOgA/CDrgFEEH4AdBB5wi6AD8IOiAUwQdgB8EHXCKoAPwg6ADThF0AH4QdMApgg7AD4IOOEXQAfhB0AGnCDoAPwg64BRBB+AHQQecIugA/CDogFMEHYAfBB1wiqAD8IOgA04RdAB+EHTAKYIOwA+CDjhF0AH4QdABpwg6AD8IOuAUQQfgB0EHnCLoAPwg6IBTBB2AHwQdcIqgA/CDoANOEXQAfhB0wCmCDsAPgg44RdAB+EHQAacIOgA/CDrgFEEH4AdBB5wi6AD8IOiAUwQdgB8EHXCKoAPwg6ADThF0AH4QdMApgg7AD4IOOEXQAfhB0AGnCDoAPwg64BRBB+AHQQecIugA/CDogFMEHYAfBB1wiqAD8IOgA04RdAB+EHTAKYIOwA+CDjhF0AH4QdABpwg6AD8IOuAUQQfgB0EHnCLoAPwg6IBTBB2AHwQdcIqgA/CDoANOEXQAfhB0wCmCDsAPgg44RdAB+EHQAacIOgA/CDrgFEEH4AdBB5wi6AD8IOiAUwQdgB8EHXCKoAPwg6ADThF0AH4QdMApgg7AD4IOOEXQAfhB0AGnCDoAPwg64BRBB+AHQQecIugA/CDogFMEHYAfBB1wiqAD8IOgA04RdAB+EHTAKYIOwA+CDjhF0AH4QdABpwg6AD8IOuAUQQfgB0EHnCLoAPwg6IBTBB2AHwQdcIqgA/CDoANOEXQAfhB0wCmCDsAPgg44RdAB+EHQAacIOgA/CDrgFEEH4AdBB5wi6AD8IOiAUwQdgB8EHXCKoAPwg6ADThF0AH4QdMApgg7AD4IOOEXQAfhB0AGnCDoAPwg64BRBB+AHQQecIugA/CDogFMEHYAfBB1wiqAD8IOgA04RdAB+EHTAKYIOwA+CDjhF0AH4QdABpwg6AD8IOuAUQQfgB0EHnCLoAPwg6IBTBB2AHwQdcIqgA/CDoANOEXQAfhB0wCmCDsAPgg44RdAB+EHQAacIOgA/CDrgFEEH4AdBB5wi6AD8IOiAUwQdgB8EHXCKoAPwg6ADThF0AH4QdMApgg7AD4IOOEXQAfhB0AGnCDoAPwg64BRBB+AHQQecIugA/CDogFMEHYAfBB1wiqAD8IOgA04RdAB+EHTAKYIOwA+CDjhF0AH4QdABpwg6AD8IOuAUQQfgB0EHnCLoAPwg6IBTBB2AHwQdcIqgA/CDoANOEXQAfhB0wCmCDsAPgg44RdAB+EHQAacIOgA/CDrgFEEH4AdBB5wi6AD8IOiAUwQdgB8EHXCKoAPwg6ADThF0AH4QdMApgg7AD4IOOEXQAfhB0AGnCDoAPwg64BRBB+AHQQecIugA/CDogFMEHYAfBB1wiqAD8IOgA04RdAB+EHTAKYIOwA+CDjhF0AH4QdABpwg6AD8IOuAUQQfgB0EHnCLoAPwg6IBTBB2AHwQdcIqgA/CDoANOEXQAfhB0wCmCDsAPgg44RdAB+EHQAacIOgA/CDrgFEEH4AdBB5wi6AD8IOiAUwQdgB8EHXCKoAPwg6ADThF0AH4QdMApgg7AD4IOOEXQAfhB0AGnhqwapBuvAAALCDoAAClA0AEASAGCDgBAChB0AABSgKADAJACBB0AgBQg6AAApABBBwAgBQg6AAApQNABAEgBgg4AQAoQdAAAUoCgAwCQAgQdAIAUIOgAAKQAQQcAIAUIOgAAKUDQAQBIAYIOAEAKEHQAAFKAoAMAkAIEHQCAFCDoAACkAEEHACAFCDoAAClA0AEASAGCDgBAChB0AABSgKADAJACBD2BJjWT6l7oqQINPCD+99si1LO3pXj8ZtN5eZAmBD2BFtNSKxV6qkADncX/fpcM9ewtJR5fr8XLgzQh6AlE0JFkBB1wg6AnEEFHkhF0wA2CnkAEHUlG0AE3CHoCEXQkGUEH3CDoCUTQkWQEHXCDoCcQQUeSEXTADYKeQAQdSUbQATcIegIRdCQZQQfcIOgJRNCRZAQdcIOgJxBBR5IRdMANgp5ABB1JRtABNwh6AhF0JBlBB9wg6AlE0JFkBB1wg6AnEEFHkhF0wA2CnkAEHUlG0AE3CHoCEXQkGUEH3CDoCUTQkWQEHXCDoCcQQUeSEXTADYKeQAQdSUbQATcIegIRdCQZQQfcIOgJRNCRZAQdcIOgJxBBR5IRdMANgp5ABB1JRtABNwh6AhF0JBlBB9wg6AlE0JFkBB1wg6AnEEFHkhF0wA2CnkAEHUlG0AE3CHoCEXQkGUEH3CDoCUTQkWQEHXCDoCcQQUeSEXTADYKeQAQdSUbQATcIegIRdCQZQQfcIOgJRNCRZAQdcIOgJxBBR5IRdMANgp5ABB1JRtABNwh6AhF0JBlBB9wg6AlE0JFkBB1wg6AnEEFHkhF0wA2CnkAEHUlG0AE3CHoCEXQkGUEH3CDoCUTQkWQEHXCDoCcQQUeSEXTADYKeQAQdSUbQATcIegIRdCQZQQfcIOgJRNCRZAQdcIOgJxBBR5IRdMANgp5ABB1JRtABNwh6AhF0JBlBB9wg6AlE0JFkBB1wg6AnEEFHkhF0wA2CnkAEHUlG0AE3CHoCEXQkGUEH3CDoCUTQkWQEHXCDoCcQQUeSEXTADYKeQAQdSUbQATcIegIRdCQZQQfcIOgJRNCRZAQdcIOgJxBBR5IRdMANgp5ABB1JRtABNwh6AhF0JBlBB9wg6AlE0JFkBB1wg6AnEEFHkhF0wA2CnkAEHUlG0AE3CHoCEXQkGUEH3CDoCUTQkWQEHXCDoCcQQUeSEXTADYKeQAQdSRajoB9n/eQgUNq1a5s2rVvvs8+cOTuOPLnZrjxpthD0VAd93UJPFWhgz/gEvTUvjyM9u05vs3Prg/c5YE6LkUc222z45sXze+85bJ0u1xbt0GpAvVdhMV4FWwh6qoO+eaGnCjTwbnyCfg8vj5Nkt5W/BATdJoKe6qBvGPYQB91z5ZNvfjVvz8O63FpUNG5oUdFzXbocdtJds76beeXD/eyeDWKt79xV1/j1nM96P7HTg0VFRRO2LiraokvLl+f/c+Ka/87eL9yQr8Yn6DuHO4M+M3Z54KLhxed1XrpLUVHRuFZjKv4DGfbR6Rv+evvBK3dTKbFf11vabND6hn3OmLPmyIuavTn8n+J5C4vdSVvEO3RrCHqqgz7cfPCDfv/u9KVHNzVoybiW1719w3gXZ4YY6Xfce6d2LmrX1D+FqUdvdffXfUwH/m98gn6B6dh93n/knOeLypoas+Nzr836++r2KmG6Ljj4f5fsOnzdPz4atszFRZe26qi9IejWEPRUB/0ys4FnPzPvVunQZTf+9737XZ0hCmzGmnd93kP4L6HDMptvspzJ4NfFJ+htTMZdYo3Nl+4gHXngYRuenYQ/eve96YwjT91703FmH5LbRdCtIeipDvpL8kGbn//Zocb/JRbtdn7Ij10RW3ucf3qR6T+EHusc+7j4AJ/FJ+iDpWOWH7xtlzLjZ2XpV6ao2LrljbfuWnJ7HQME3RqCnuqgPyQcsc8BLw4M+R/jwBevtPelYb82cu+oFHtH/jysaPXA+673cv1rkKUe/Pgs2THWjU/Qhf+I3t9wXLjnROv7Tt1Fxc7ca/5Zrcmv1fwi6NYQ9FQH/WTReGfNOiHSf48TvjL+KrIRtxgcdQuVYt/Ln4eX7R21/Ru5sDWvVPbbAZKvjjePT9CXEAw3ftKNOpJT9j9ExUa/Tx97foKOF4JuDUFPddDfFoz26GvGHyU2UPbavXZObYz8mCWTVWodaPCSyP5oE5i8/3Y6sjGHNw880C/xCXrXwMFmnDpCR9buo3i8Tb/61z+tXp5uCUG3hqCnOuiHB451ZktL/1F2+d3Gqc0zOOKZKrWeNngadrdzyLnrhv3SpZ7TPg66Fuzb+AQ96AqQGbvZulhsp8XLVUH1ufIu+S8Ovwi6NQQ9geT/Xb4XMNLBoyz+Z7mChVU63jM4nvQCgQRqJn8WBvS1ccAZd0mvaRc47Zmm72R7JT5Bb3pNhYO2snnt94Vnq4Lp1v26Vjq2CLo1BD3VQX+kyXHu/8juf5ftTj8o6qldbXC4vVVqGbwwq1s43BCr4dJaf3hAU4c7MT5Bb+or/25H2m7gqAItHT+leKiOM4JuDUFPddBbNDFKv8vt33p6xCcRT63c4DfP1IjHqn/ok5uFdo3dqSiDL7O3jXyw9nc7+HX/bhMX3+8am6CXNDHKcU9p68pWGqJ867nmTjrmCLo1BD3VQV+j8UFWPcXJf5u5iL+xXjY4lt0b13aOcNYnlFqdypYGh+4e9WBL3aldWOXLRo/4XWyC3rHRMXr+0uQSeaENnam8WnHDGH/UXoOgW0PQUx30OY0N0ffmEkf/ce6wi69vj/UmyqZHopy1rfv2qhwgP3DZgdEO1W0zi1+e1/VuY3/bHRmboA9qbIh7It6p1oTXJipvVi4u5AJwYgTdGoKe6qD/1MgIj7t5V1ap46Qo57aLwZFeUTadHuWkm/puw5z8qjH9ebQjLeii3VmskQvwJ8Um6CMaGeFLlzd3ndbkBQYWXXCUsz/W7CLo1hD0VAf9yvwDPGDpDqVG/BFhP7a+BiubdFY2RfrK9C+rU/lTfuCtIh3ogW20Sx3yf+w+MjZBH5r38X3ki82HUrKtj51bJn+VkJwTdIsIeqqD/ka+h5df5urj9hr/F2FXCoP74ieoAq3l0tCFNqdSarBwXxNXSQTqdrN27Z98N1/PjE3Qj8j38IM21q4Nc35tXP9n4n1hex28Q7eGoKc66E/neXTPvbVzO4VfxW1bg8OsrOw5M9IJ97C5R839BgeOsJL7gedq987Lc0v68bEJ+rg8j15ZvOFgBFvMVU5Nu1YnCEG3hqCnOuirNnzwcu7ff2itLw59BfqPBkd5QNnzWLQTnmZxKmvIDzsm/FEOeVD7sMIeDY68bGyCfl/DB88133MwjEu/Vu7ssZXrz+DsIujWEPRUB/2FBo89aG3txTH7hjy5fQ0++j5H2bN8tPPd1eJUfpAfdl7ogzxsYeF2kaMbXFFxfmyC3nCDnwtCb6tmaOC/ypVVP9TJQtCtIeipDvpS9R964Kbak43DXhln8MZxfWVNacSvHF+zNxV1mLa2tm+jZh+hfXm+/qfum8Qm6DfWf+ghft6fV+jkaC+C/udE32zJM4JuDUFPddB71Xtkc4NWRPVRyEt5X5cfYhV7+108HvFsL7U2E9V/kPywV4c8xsNba3/G1lt2p3tsgn5xvUceeIzWCS/6f9bXiUPQrSHoqQ767LoPbB/xc2Uzw51/g1z//CL4O+rZ3m9tKr3kBx0acoW6+332XOvN6h59n9gE/c66D+zv4zLBRTpZ2iivzrn7+ibFJoJuDUFPddAvCP3lrAUl4XaXuqUg67nsFvVs7S3n/qX8oC+HO8IQHxdy11LyRZ3D3xuboNcbf5b264THlWXHGyzjEB8E3RqCnuqgn1XncS20X63C3VZm8DXmV5aeUaNv7l2s8FLbZ/KDnhzqAD1X054N6BVuNUDXQV+tzuM28X5t+FVbKqsmJe7r80oE3RqCnuqg17lLeUoH7dky3cKc3n/lB1ja1lO6X+StOLrYmooyWJY31Lr5pddr776vffPa17EJep29Zwdvr70b1fTO8YY208lE0K0h6KkOeu03AOM9f84a+mau9+TjDwj1F0Me0yKfasfmlqbSs6P89PuGOcD+ugCuqzWBZ2MT9HNrParc7xfo1j9jUqWb64Qi6NYQ9FQH/aBajxqr/eu0UYjTu9rgAFMsPaXyLbobdYOlqeyuw73BlDrTzb6gQc4I8wK7DvoKtR51kS4Ie9de+L4CwB6Cbg1BT3XQlwt38bg9/xfiMuxyg1vCR1p6Sk22Ybf6fXaUzUX1tiGGv8VgoXibdpgc4hZB10F/ftGDVja4WdCmgWH+5s3nbZ1YBN0agp7qoPdc+JiJBfo9PjPE+e0pH34lS0/padHPdG9LUzG4hOBH89EL88FyhaNCrFXvOugnLXpQZ10gS/dXNnxR6NVel9/g/X3OWHbkRbsO/+ez3s8f3eXaq1pJL7kn6NYQ9FQHfdFXzD/rwhi36G8KF1/yRtwOPMx2KI3Z2s5UlPxSh7J9k/Q+rmThFXyDYxP06xc+5gFdMB8rC+5tqwusd75pdZ3epvUu+yz+wciTTxy+21G9V2jZZYuprRpcik/QrSHoaQ56ycIPvK/UhRLik+iD5aP3sHMp2jU2zrTuPYJhdZW/03rQfPSdC3if8qY16/q9E5ug52oe0tPfkq8NdKy/nmMIW/pdKSifJeWrFvbpOmNB62nd56w3qdllvxSPffe86E8AqhD0NAe9Y80j+hVuu4ah5m8j+xpUx85iW1vZONMoW5OH2sbV/Nb3cu93oNf2ZfUshsQm6Av3tjlWF9CoyCsYty/YFym1XXXqp7buOkFIBD3NQe9U84iPdeGEuHKrpXz0I608o11snOjmVqZyrMu/IHbUhTS1er+eA2MT9DuqH7HlNjoOf+mE9krkKVy6Tu9T3/pgk3ufbdNmYtcKK7Z5+IXfl71tr3nrm+w/t/3Y7iG3cIAVBD3NQR9R/YAlVtGFs/1+xid4hY/9Q2tpLr/1uwk72ZiKOkl+wFtMx14i4pZyUV1UNY09YhP0z6ofcbMuqBOGqEh2ibJAXMe1X3/kha5NDb/c++ut20X8n8jUNy0vfwcDBD3NQT8hFr+vnjE+QYNv/E+x8YSuauU824bdMDbkFY/3GY+9krblhKLPu5z7RO/enYcdfeGhA6WPOqJqvbg+sQn6ulUPeKeT9AEDD73z6GF79v552Opdniqyd6PbqSqKbheHPW7Z2pfdIPxX2/ONX6Rb0XW4a0Gk80F4BD2BFjO88HqwcM3XAR/u1PnF4uKbh59TXHzHy6udYmkpzC2MvyLsKn/HUXKghSf0ZDsnGmoh1noOkR/uv6Zjz7awpMyE5a94svvsPepd9DB3ny+v2FOwz9ekyh8vjU3Qq78lOTX4J0ev/s973R+ud8vGkCk/Hbn5Oha63jbcrgfRlv4ra3nJf8wOtNGxwqa3m29v80GYIOhpDvrUqp8PXhJy3G/f3n5cw0/K9m39wIl7Rr9+9ieXW6U8beEJfVdb8ZaFqfxPfrj3TMd+LeL5XfzDGk3+nu767+Utm/7bcYuqL1h7xCXoG1b+/IEB36CPOWpmU6u/9L9p5B076GiM/zirpU2ovygmXDE4zMGOmyd7d9Dxl1qLWsEbgp7moF9V+eNDmv4Pvqj4+Ka/jB283qvRvnutvcCmzOvywZup6KL+Oq72kYWpGFw+IL9NyPhuwIZKljlZtKRZz01Ov7SJYf5X+UOd4hL0vYLX5uvy8QaCQ5bvfk6RjqBMcpBG7B3ieFftGGJ9iCoTZ8muINzhgfCnhLAIepqD/lzlj7/ZxE8c89g9kiP2/zEn/iXcULtDTM/wC68VnaHtGBd9KmqY+GhDTb/JODr8mR2xWZ19+5rWfp+xA5reDWWVuAT9soofL32u0f//Dns9LD/slLsibGc4VoV1nPkScYfuGOn2siEbyq6QezXitX4wR9DTHPRrK366zxGN/b+3f721/KD77t/oOPbfRcvXEgtxaVgDy2pLjC87b6BUft3CnoZDHxf6tB6cabqrW9cjx+QfqqRNxf97aFyCvlnFj//e2P/3zi8MV2WduFlTn040qV3oL52N/07rcFnk1ZgWrCA60mIHRz0QDBH0NAf986ZyNfWt8WaH7Xdb2E/eK/+wMGKwcJfhhT15CK6Jkon+IePj7v5KMrgfro4bQ6wYr1T/NT5v/D3xEXEJeuWqq8/n//+NOjPEofu9PVqHs1uoU1VqH9MDrXaBsuAR0acsHatvVIQvBD3NQV+74qf/L+//a4f3+pgfeEhxyBteDT4JMN6h5EoV1TLBB3mjdesng3/qh8hTOd7ZNfU7h9u8Y8RbYT+dLb8m37v0qRVfFEyNS9Ar/ii6P++/6QvD/rOaeEe4/0YGhPx8epTZYXqcaGnhl5WXFB3vddaZ8YqgpznoS1f8h5fvF/nAj+vdeCQ1TXBvko3V4u6Wj/2Siqhf8L4Wl8oWWa94vqMJviGhxgDDj8F302H8N8oiIX1PHpT/75Cr4hL0ivsSNsvzvw99L0KHvr5QhxHu6k7DL1KGPqps6TdfdMTXTL+uQRQEPc1Bb6mUeijff2Sh7liptG+obdsuNj3MBjrMntbhvBB8jOVl26B1iPzLS/5+q+K1NRB0a1Zeg/6OeDr3H513DZVb4xL0ioWD89xafdRBkc66X7EO4apQK7qPNTrGKbY2X690ouiYna2stwQZgp7moFdcU9xwFanTPoly8NI3w3x2W3ktlIHyVuKhK949R/Jr8DFeqfi5F4N/bq2IU+km35bmCrORn9HmbjS9Ma6h0kn1r/yeWqrUtXEJ+iVKXdDgf9zh7Minfbx48bxawnzIP91o0eKLo19vUsevol8FndmxxR+Cnuag/6nU7Ab/429Rl1o+XrwuSIQ9VBq5Uimf8B83VOkdfIhNKn7uouCfezviVKbIz9rwUrXvtbGfzRfhz3dKW9QbdopS+a+XK0DQR+ZZZu35aG/Pq8wWf6uwyN4hjnOZyQGOWUJZ9o3ouPMX7uIM1wh6moP+fMNVTds1i/5f1wPmRR/mcDnL8yOejuCygMob6XcP/rlXI05FcOFdtbJ9Xd+zNs/S5UwH1ru1flel1o5L0NdTqt61Xe12tVOfFcVfKyzUdrLxUcpNLmlZzGAtAbvXfFxu/8DIj6CnOeh7K7V63f9laJh7cRpYw/hT90593S1rNtz56uk7VP5gz+C/Yw6NNhV1l/ikHzQb+Ctt6vTIm3TX6HZdnYE3VmrpuAT9AzW47j/lEb/bOut3zD8TedL4II8ajD7I+FYTgfLOkkOXVC0QCPcIepqDvunIu+tGaIylbZB21aZMl5joK1916+ho53J+8BFervpJwdXLxmvi1SXdz0rr143G7XaaNrSuxY9JS4fXHrnjeyPrfwpfsKCfPrLuHxuHRliBtb7/yF/McNc5KqU+Mxh9R+XCEqLd0kfMdXJwNEDQE0i+w2Y9F75jawqyW1Zq2dX0CIeJhx4drT2/BB/hRPGvz2gf/+8h3w7tC6OBz9aG9rb2/rzSLB2O66DXc0rEv8fqWtF0W6MS08/E+8ovHdXv2jy1WqaJPq0bZbjmHkIi6BkK+p3mX9I1Zr/G17/Or7PpEb6Vj/14pFNZR3z98ZfBP3mOr33ZzVaZrfs+NNgxVq6Hi74Yn9+gXzzR7knvbrq2+yWGBzD4O217yxe4L7KS6PjHujo86iDo2Qn65zYu360xxeh+Ga1XMb3E6kr52NdEOZE+gjvFqn/R9wr+yXWiTEW95WNKp6IAACAASURBVGgF+/aGn7hPiLQ9dz7lH+nYB/1G6xeBP2I4gz8Nx99KPrS7NVi7itavH8CH7l4Q9MwEfUzU29XqqvO9qMDOhuN3la+gWbFWSWjvB4+/XfWP9g/eeLpTiAV1FznP0f7ZBu/8K5RNU9Y1l60UWsCgbxf19sc81jWbQlvDPcTlV9I/5/Be8EmO9lBGCAQ9K0FvZbARpMQe95kd3/httPyaotWinMdtBl8/Cr7Xfz/KXORbat9t+zKB2r5SDky/NN5BHz3b+ikrtZ/hfyRzjEZvIx94TeVOnw9FU+jucAqoQdAzEvR2+9iexe1mE/jF3bubQVGuuBlr8P3fD8E/e1uEqQwRn7E2uxrb7A6q7Qx34RPqXhLnoJdFXx4unx/NZlHsaMODMU4Xa1tPNIcL7V5nibwIekaCXrlRpFXlDReVtXpz2RfysXtFOA3Bkl5v1PzsGsE/OzbCVLqLT7hVueU77Ws7QLlh+DmB36AfW6hfsHV8aDT2q+JxT1Yu9bvUwccPCIWgZyPonR38eTzHaAYnmA4/WD72l+FPYkvB8As3tpwb/LNjnG92UWFPo3H/1iauV470PUXHNugu/vuoNNHgzjKt9QyTscXLy7a1fPl+fa/IN3OGWwQ9E0GfYPeCuCrtzb4gnG46/qHioXcLfxJnBI9+1cIfLj0h+KcjPNN7ik94f3eLBrS7QLlyb0lcg76Ds5u6DP5Kq7Cek29oflZutZG9sE87ngYUQc9G0N0svWiw3rrW+gbT4QW7m1Xb1OnF+rXesv4Z/NM/hZ/LEY7W3TP69xLlOwN7K9v6DXrJwi9V7Nt3tMlM7nDyDc0ayjHZrr+9XU8DinfoWQh61D1DGrFER1dvPipdIh66Y/gtlzcOHr3Zop++PPin9wo9lRni8zXbd/0so4vDTG8vNLHlNvEM+nXKIaMN0b538d6/g+HdcOaOFM2j7cLvruAKQc9A0EdbW/G1nt9MZmG4gbdSG8jHPi7sGfQXbFz96aIfPyD4p1cPOxW1uPh0D3N3O8JHyqU3Yxn0rbsqhw4y+SvGZBM98Vo97m8Bf1w2kSi3gECEoGcg6Ie7msgHJrMw/sCtvJX7M3w2eOySfY0uoRsU+g6hvRz9bWS07Gqk++gDjT8tjkH/Wzkl22K0msGH/w8620fBnOxymvB/7EKIoKc/6Dc6uwl1ubYG0zD/ovt58dh/hD0Dwcf6W9T+ecH+06F3qVxffLrVa8sLLSMeV+trlVuPxTDoy1jcWC6fKSaTqd4HSKBU8OFSlReUc7KrI9o5vtoeiqCnP+ibuJvJuQbTmOBwk9bQHRJcAJ6r/fM/B//8pJBTKV9FerZlRh8RdzPZIsTs8nlzQ4JXz/Ue9N2VY085+cpjunTItpGWI7a6xo3LBetQgaCnPujLOJzJdwbzKDH+vSJfgrws7GU/gp2536r9882Cf35eyKnsLD7bB43GvUc8rtZlZpu4hfBX7IL+m3JN8I9moVvFo94rHfJO5Z5gR4Qo/21AiqCnPuhmn886u27NdMfPihWo5O8tHw03/yGCG2jvrf2Ap22v9hVm+Zd1Xa24p89Vrm0Qt6CXuL1qoMIh8m3udVlz6agtXNwKF1Y/2Snu4PjbDeSCXoKWPEexYxT0O13+N2Rw3ZrWXxsPL9gMpdp34eZ/tumb/wMFe8CFXKTkdfHJfuFsW7wIS+5J3RmzoJtuWRrG6gbzed/6p2Nu132tJlxk6n4fc8myXNArQNATHvQPnE7leaff5X/r+k57wT3CNxrvcxJyLXT5/qJm+3wu72rl0XAuilnQ/1XumVwKONP6TREPKA+Ols3ldh9zybJc0CtA0JMd9K2N1iAx9pDBVJ508Qa6wfKstn8N1fva7w8HN9xX6iv+fuFQs4ENFuitc0G/IxPLYhX0Y3x8CLy7wYS2lQ56h3RE998pKKVWks1lQx9zybJc0CtA0JMd9FfcTkW+/GSY22Eny3/5h1qEqr3gwvIj6z7k8OBH/F+Yqaivxaf6otG4/QwCGmFNfNvLhPoKeth7Eoz0H6Htf9YkXvn/EOXBtrK5POFjLlmWC3oFCHqig17i+Esrk505vzUf/hjx4L+7ukJrF+PubtM+zFwmiU/1bqNxHxaP62mDy4fiFPQBTheJC7Htjny5hqWlI4ZfF9n+NymGny7BFEFPd9Cd/z02QT6X181HX1c8+GNhJj8yeNyOPes+pI/gk/GbwszlKPGpbmA0rmC12hplXtba7hWnoNdZZMCdt+UzGiEd83PhgAOVD8fLJlOyh5fZZFcu6BXgHXqig/6e67mI3yeEugn1GvHgr4WZvOBryC4hTjjUk36t9ExblbtqSZHyofTSGAU9wt54JsT3jBt8eSS4PLPSYsqHT4Szcbn3DxRBT3nQnS8U0lu7bK58A7Idwkxe8DtxqxAro4dZiHY58Vfdz5sN/I92+0eRuZPiE/Rt6n3+4spB8lMWf75TJBxvjPLhyhjdVJBluaAXgHfoSQ66yW6M4WwonoteP8TwgrXTq61oPnjXkhB3/Qn2LnsuxIlOc3Vt4bsOLrCO5pv4BN3RvsKR/gb/UTjkOOtrz0Wxj+278hAKQU8g+W+HpeN0W/FOIYZ/0eWHp78Lhr2g/oNWDn5MyUHmczlZfKIHmw28k3hgvYby4uD4BH1H5ckK2vqcTovJfjtVHhXOppmX2WRXLugF4B16/MQp6NLvzkKuKS3YDS3828vNgkcd2vA25SOcrLZ7vfQ8O/R19t7Q7Gq70MYLPhjxFHRPf8Io9Yv8VdhMOKR0kcanVJyC7vg22szLBb0ABD1+4hR04a4MFY4JMbx8Z5EQd7j+GTzq8g0f9Vrwoy43n8uh0vM8zGzc/vJ1xDt62JXLcKmb1AR9PfGUdHGqg/6Ll9lkVy7oBSDo8ROnoG8pnkv9RVRFyreXjp7nvbSFsV8KdR/1MOPznOjqbn6DhQK2U548n72g/yt/GX62HHQ/H7lLrwH5y8tssisX9AIQ9PiJU9D7iecSbhuy38TDzzUdena49Wo+DX7UiPbuFrk9W7naPDXMNQ6hzMpe0A02mdtYOOTQGK3nq9QbwtmEuQMEcgQ9geIU9FL5yqL3uV1XzHjfh0eCxyzJs5DY+HYOvo1+RXqWJZPNBhbs91rjJOXJ3dkL+hD5y3Cx5Yvi/CzOtolwNtd7mU125YJeAN6hx0+cgq4GiicTaoWLVcXDG+/78FnwmKfke9zFDq6e7uzqQoTzY7aSu9nHEakJemlb6/+ZSG9b21r5MEc4mzwXpcAigp5AsQr6BLdB7yfehKylg4Xi835AeHrw4+4wnEqp+Flc1/7qtk1cL+BGr+wF3WBBhQ7CEccIxxukfBB83BXy8hKYIOgJFKugy39ThVuDch3p8KZ7okjWZrsk3wN3tL+gTxvpSeprDEfeXzyyHqk8mZzBoBssByC82eBW6Xhelk+X/jsj6G4R9ASKVdCfcxz04eLxr7a/ttWUkBc45fvuvSmC5eeqzXCzraW3vdYqlPbIXtCPlr8Own87d7r6J+N0xUj2T3WLoCdQrIL+ueOgy79wNVxV8uPgEQd1C7uL+u+OFtA1vsJJsPR8jQOULydkL+jyW/Wk+5efKx3vOOXBi252IoAhgp5AsQr6To6DPrnM0fasz4dexOX/7C33Va2l9BxfNBtXqZWkI2t9pvJli+wF/Wf569BgteH8PpKO94XyYBnhZPb2MZkMywW9AFzlHj+xCrr0v+TQ+zg+5ea3v+Q6tFn5H3pF8CNXMJpLe/GtAncbjauUGisdWesblC9rZy/oL1rfbk1wbWaVj5UH0rviz/MxmQzLBb0ABD1+shX0v6TjdzBauvQCwYiL53/oGcGP3L7czeov9yhDgoVqvX40W2n17AX9Lvnr8IJsRMGflVXmx2l/WBaWcYugJ1C2gn68+ADvmwzbIvxu8pLlbme7uOfH8O+ECk9Ih9a6l/Ilg0F/Xf46rGp5eZ6n4rS07eYeJpNluaAXgHfo8ZOtoM/QTj6PXjfChAW7izxiMpfdtLNLisSXTmm9QPmSwaD/IH8dplm+WrTdfq5PzmBBxzfdzyXTckEvAEGPn2wFXX6nu9FyLndG2CbjvODHrmQyl02lZ7irctZOrTdSvmQw6BtavzhRvjzPva5PzuCbnYvczyXTckEvAEGPn4wFfayLZVH3ENwLfXJjD37b3orcFXp2tPxpbJh1eQh6XILeXTbigeIB3e9B3m2EdC4fOJ9LtuWCXgCCHj8ZC/ok6QHa7WF3/+ZG39nsHvzYsgPlc3lBeoId+ilTS0vHJuhxCfrZtn8NuP8tsKrt7xMQEkFPoIwFXf7Z4qpWl6rs0ejfB/3aWr2r+zbp+a2jjC0pHZugxyXomwiHHCYdsN1Bbs9NqW/FJ3e/66lkXC7oBeAdevxkLOjl20uP8LZ80JOCR7swUiYfk89lnvT8vlXGukjHJuhJC/rm4hGfdHtuqrRIOpOSvo6nknW5oFeAoMdPxoKufpMeYax8zCMibSf6ldV9Ip+z/WFsLQQ9tUEX3+yoN3Z8ci+4/x0AGYKeQFkLuviemC2sbm82M9K98UNLpXPZt0R4emWTlTGCntqgXy0esayN25MrFs+EzdYcI+gJlLWg3yA9Qon4y8Jrot2XPVfw8MelcznTxVX8NQh6aoNeLr60XG/o9Nwmi1cuZl0Z1wh6AmUt6D07SA8hvhLtn2irspUK9gtb0/oHEH8pcwQ9tUE32JJ1tNO1ZXaVn9t7LucBRdCTKGtBl99M/ZB0xCUj7tz8W6Sv4OvaW3p21yhzBD29Qd9MPqb5ikRy40+Tz2Mth/OAIuiJlLmg76Utb87Ys23ERSpPDH78g9ZfzhnKHEFPb9AFyyHU2D7E5RcO/q7owEXujvGRewJlLugHSA8xVTjgwVEvKX8j+PHtxsvmMl16ctupEAh6eoPeX3w/p9bnODuzd1bRcfp9lHG5oJeA29biJ3NBnyy9Dly/Ixvwu+CRSpZoaoCughk9LZvLTw5uyluEoKc36Ooj+aA9nO2l11s+Cf2Dq0mgGkFPoMwFXT0lPcYB1n4Tftj0CDcGj3CsbC7bSs/tEhUCQU9x0OU7C2u9ZH83Jyb+9KzClW7mgIUIegJlL+i7Wd6HYlzwSPOaHuG64BH2tLyC5z0qBIKe4qCP7yQfVV/h5Lwmbm0whbYeNnLNuFzQa8BH7vGTvaB/ID1GZ2tbrB/e9BDvBY9wgmhpmVLpF6Gj26sQCHqKg67elY+qS85wcFrl8lvntNZHO5gB6iDoCZS9oJ8lPcYE0XAPCEb6uukhnrW1wfgF0lP7TYVB0NMcdMk/5IW2D/URT9O2MpmAyV4LCIegJ1D2gq62kx5kZcloN0e/wab9QEt7Px/v9lZigp7moPe5VD6s1oudVcAlZSpWoD3E9vFRH0FPoAwGPfDfaY0HJKONCh5nVNAYqweP8bpkLqc62Bu2FoKe5qDLV2io9KHoz12528R3n1Ti61v3CHoCZTDok6QHmSUYrK9gKdmbgwaZFTzGnZIzW014Yh36qTAIeqqDPtcsqeNmF+79udaTbB4ceRH0BMpg0G+SHmR9S7s9Lhs0yPnBY7QTXNTbTXqh8joqFIKe6qCrl7WRET9ZO6P+w80OrTt1tXZsNIagJ1AGg14+WniQVZrYUqXGRYJxAj+cXFEwyL3Bc5FcXFdpuAqFoKc76PKtyKuUPSb4D0RiuniDhRp32DkwmkLQEyiDQVfLS4/ycPBY5wWPckTwKFODR9k/eJSRlpfMqY+gpzvoamNtaB3RzRdBbh9qelx9nI3jomkEPYGyGHTxHqMtgsc6NHiU16ysNndS8CinC0+rLOTuGgQ95UF/Wpsa1CzyFimDrzc+qj4s6kEhQNATKItBv0F6lK+s7IYi2If1Gyvv8x8UntbFKhyCnvKgyz+7WuSqOaI1jxqzx2aDzI+pf49ySAgR9ATKYtAlG55WWkZZuJxNsrGK5E+MNkGDNO8hPK2/VDgEPe1Bf1j6T6i2i1uEXtp9vyNNVntd6M5If0NAiKAnUBaDLr69a0A3CzeclS0XPCFJi7+wsY9rpeNVOAQ97UFXxTqMoodCLfOyweYGe7bWxht0Lwh6AmUy6OIlNKYEjdTS0gfcd1r4/P9X6VmFXeSLoKc+6JOP0KG0+229IWZHmvG2/L/2elYwPCmEQ9ATKJNBF2/TONLCnd+nS2b0V/A4a9taAW+qComgpz7oag0dVruNHzu4j+wgPT/ddu3Qx9HtNgjxnMEcQU+gTAZ9snRNrJUCBlpKMMaXkhn9HTxOx54BY3woPKmxKiSCnv6gq990BINantqiV5PLEPa9p8U/qw2Icgy9eZTnDnIEPYEyGXT1lPAwnweMc7hgDNH7iQXRF2A/qMT1qpkEPQNB3zLkh+6LlBx67h2vTDpj1V4rd625BqXriju/cPaOm332xJiyqKPr+9gI3ROCnkDZDPpuwsP0CHhX/N/gIVZpb2sn82+aHuJ34TnpXiokgp6BoKvfzZZ0D1IiXY9YiivifCHoCZTNoH8gPc7uTY9TFDzC/8lmtELwSD83PcJjwlMaHXq9ToKehaCrc3ScrevgCUVeBD2Bshn0laXHObLJYf4jGGFb2YzeDB5ph6ZH2FN4Sr+psAh6JoLePsTyMt5cHHQlCawh6AmUzaBLFk+vNK/JUTYRjHCGbEI/Coaa0eQI0iU6BAvXNYKgZyLoquutOq4GCrZXgCUEPYEyGnTpLV6nNDnKFYIRtpRNSHJJW5PbsA4WnpG+QYVF0LMRdLXgBB1PZfZ2bEUggp5AGQ364dLfIAc2Ncr/BQ8wRjojwbuiU6MuQluhQ/jPLAl6RoKujttGx5Jgy0FYQ9ATKKNBv0l6oKYWYm8v+LV3nnRG8yIuLT9ceEKrqdAIeuKCfmXIQ+zTQcdQ0LIQsIqgJ1BGg95+tPBAzSL+VfC2xc8M2vaL9mlBpb1UaEsKD6G1trJPtsjq0iktGWp4ydJBMQ76G2GPcXa0xV+ceFV0ByhsIegJlNGgizeK/KiJMd6Lft/bIu9HG6x8hPCEDlChjRIegqC7dbP8dfg09EE+Hahj5vnArZJgFUFPoKwG/Vjhge5rYoyjIr6prqOP4C3Rr40//GHh+ZRMVqEdJjwGQXdLsPB/jUfDH2X3kFuhufJuX5vPIYIR9ATKatDvlR7pP5GuY9vJ6p6u10daDF6+91sjNhYeQ2u9s/Ilgx+5Xyd/HQ6OcJi5p+gY+W/oTdcREkFPoKwGvWdb4ZF+jHSnWeCep4v8EGmftK2Ep7ObCu9o4TG01q2VLxkM+lj563BclOMMMfhIxrW9Su09f5Ah6AmU1aCLvxB+KdJaMMfLJ7SsYLgVG330TsLTMZhQA38Kj6G13kVlLug7Kl/elb8O0XYa7Wvw4b5THda09uRBjKAnUGaDvpfwSM83OsIrgkfPlU9ohmC4OY09uI/0NqOzVHg/+7gYK7FB93ePtMEOp20iHur2VXQMbB3lmwOERdATKLNBlyzbWuGIRkcYFvzgCSYfFArWbt0wanea+NA+2HzhQZr8oiK1QZ+lfDlX/jpMjHqsCwwWH3ClcxPXscAdgp5AmQ26ePvwwY0MUD7a8kYoJ0VYFeYS4cnklIdNZ7XWn6jMBf105YvBegDjIx+s/2PSq00c6fAdX58XBkFPoMwGXV0rPNT5jTz+asFjHzOZ0P7B4w3oE/HC58OVnwVN/laZC/qeypftxHMqCb1Vbi29NtUFtIy/GyZQF0FPoOwGvVh4qOGNPP5LwWP/NZnQtAhXLT8lPJleKgLJRQPev1COTdCj3BBopFT+lnmElQO2v3uoLpCBb7M6XMEQ9ATKbtA/EB7q6EYef3rwQ0v2NZnQ+Hah92cfXyY7l9GR3rH9qsU2V5kL+irKk4PkL8NVlg45pFjwb9O+kvmHWDoBhEDQEyi7QV9ZeKjtS0N/ZH+j2YyOCb3Xy6PCc1leRbGm8Cha694qc0HXEdbgM7KzfEprWzvogt7Sa07sOexra9NHCAQ9gbIbdDVOeKzH8z56X8Gb4uvMJvRZ6JVovxGeyrEqigOER9Far6OyF/T3lR+fyqf0p8XDTtnTb9JHnWlx8giBoCdQhoN+nvBY1+R99L+CR75nNqFHBENOz/vI3sJTuVdFsYvwKFrrIpW9oM9Ufhwvn9JYqwd+UvtzdOh94mALQU+gDAddsGFppVPzPvpEwSOfNZvQ1aHvB7tPdiYdeqooFmixAe2zF/QflB+XFepShtu1Jx3uuMfqxBEKQU+gDAddsp154x8fdw5+4EDD/SQkW6DmXb7kP8IzafQ2dutXY/nbED0+QW/s6knb9pZP6WRbx+y74MdJGwq2D7LhqYuG2Jo2oiDoCZThoLcXrAxTYVC+LpcK7uRZ3cHuJ4fle9yVshPRe4V6nhadc6cYrizTJTZBP8HTAiiCTf6a/rbITL+1npn/vfAuiui23irSfjKwiKAnUIaDLnmT3ejN2wtcLAa6bfCYnbrledxmwhPZREXzofA4Te5pY9eQHrEJup6tfOjZzst26FUu+PXcjtqbca8/ym3n8UHQEyjLQf9YeLBHQt7C1dgac5HWl18qz+OWl51HyUHK08fb/u5bm6njE3TDayBDetbbFx8rX2HwYUBUPVruGmnVI1hH0BMoy0G/N8Ie4pJ1zY1XxZgoGPSZPI87TXYeTyl/G3Eb3oIf2msxCvqLyocW8gmVRLgIsv0my3v7nL1Dy8ve2M/mcwQbCHoCZTnoPYVraG6a57EPOtnZ7KpQ1Vg5wh8mTrac1Vq3M1okL7TJHWIU9K1trJweaCX5hMaFP8oZNxqc+CAdWtsLT39vqcZ2KEBBEfQEynLQ1SjZwTr2C7VM60cO/hPKe4f3A7LT0B+oiEZquTOUD9JbD70EXa+lPDC4kGHjsMf4WvblypjctjueObe5Urd0P/n09bczW3jm0mXGfnz+AsMbQeARQU+gTAd9lvBoDS+8fVrwqG/MJ3RRqC2ufxGexsphnyeTs67xlfJh01gF/Qrl3i0G8wm5o2v/ywUfto84qsWMeo/rN/uNNR97/bV1bry00T9325323NKv/fXSyAPu4SP22CPoCZTpoJ8RetPRhwSPWtV8QmuFeuu7uvMPYKsN1nLfKw9e0LEK+rUqVl+h62ahjrCi4N/TYnc3b3KMA89a0PrRN+bMmXP8yJEjH5izyT77fN36njYzlgt50igEgp5AmQ76QcIPCY9q8Mg9gx/Uo+lfeXn1FXyr/239B7XfRnYWORVVufwb6xCXBIYgXfLWU9D1FOWcdOf70IsB9BJcYnnHePsnhrgh6AmU6aBLdkzL+86rVPBL784wE9opxBejkhVj83/OYEy67bqnpc3P6hGzoLv/nqH9Do7vWus1wcmXSUgegp5A2Q56sexoZfXfkMwVPGjdMBPaPMSCsuvJTkLfpCITXLS30DDlnGBLer9BH9rw8knLzjSYzcAQV91vIOj5OS5ODLFD0BMo20FvEXKXMsmGV3+HmdAXIT7X/Ut2DqMtLMK1q5YrW1E5NrdH3IKuWyjHjjKYzE7mw+9xSvCwT3GXWTbkgv4ltCz0DNFAtoPeRni47+o9bivBYxaEmdD9goEvCbeaeWcV3dna+SVZbta58RX0ix2v595TsH/PQiuZj3+XYNgHXJwY4oegJ1C2g67GyQ73qvndUq3C/WoXfDk/v+4j+gkX2z5WKa+XuTu/5nuXkvgFXV+pnJIuORDyoolPBKOO5g16RuSC/inwDj1+Mh7082SHq7eaS3PBZ71/hpuQ4PL5Lcxvdcv3tUEYpYJvWBdxu29WuXifNZ9Bj7hDbZAnTOaSb9n/JnXbQjDq8m7ODLFD0BMo40F/Rna4kro7NN8geMibzjaMKVkizCm0jbCu9yLPawMnKZdu03EMuvmOPM5mk3djvugrAZ7q5tQQOwQ9gTIedOnWVb/XedTJgkf86O4q5rPrPGK+7AxGKZ8b1FUqcbl9VpuB8Qz6hy4/kf7IZCbGH4j2mard/aWKxCHoCZTxoLcXXmT0cZ1H7e1uq9IDBatublvnEYLrkkNtzh75rimne6iWr6/jGXSXN2kvMNr/bJaL3XvzLGyElMoF/VPgO/T4yXjQVWfZ8V6r86Ctgx9wq8O1bs6t/fMHCi8N2yTCk1TraEZJKZutXDlWxzXog+5XcbhnTesDTId/UTTsXW7ODbFD0BMo60EXfoa8Q+3HnCV4wLywE7ojeOxVat9R/qnsBMJ+YlDf2trE88qRXYxuQfcadH2uq1vXWgu2+Fukh+nC6T1XEY17jKOzQ9wQ9ATKetAfDbEy+e0u11l9UjB47e+m9/d7D9lwbcTRPcvThbcbFiToepJyor3ZH1PGF038Kxu35AI3p4e4IegJlPWgNxdsh1LhJ7P1Wc1vGarRSzD4k7V+/l3Z/IuVKsCX6HrrrsqBnoIl7wsY9A5u9mgR3s5Q4zLT8Ztpv/+UEHMEPYGyHnS1tOyAtS9EE+RkQOhrnfsPNNv9barfNUmbm2y4Fm61skDlwtUDChV0XbSv9XNW6hCTReLCrDsgXai/LMS+wEgggp5AmQ/6LNlvsRUWPWX92jpdX2Tj4NFPWfTT78imr1dWhVjaROsSB0unSRbeLWjQ9Z/Gt4AHKl3ebApD6+/hE+hG6dATHrd+doghgp5AmQ/6GcLfj4uudNpd8OM/hH9F9goevWSy4a1Gepyy5XBtZnSoNe2b8oqOfdD1HdYvjJN+IF7jD+MjyK6JqzDhUdtnhxgi6AmU+aAPEd72NXfhU/ar24vB/me0as1lstmfp2yZYbaCutanHKis2lYnIOjm32AHONP0sv5PTI/Q3uCFbXeq6SX0SB6CnkCZD7r6XvY77PaFT9n1gp+eEf4VmS4Y/pWFP72CbPbPKGsu1IZ+C7Etd6NKb9aJCHq91X+ienh7w8N32sP0EPsajd/qzcFWcxDGlQAAIABJREFUTxDxQ9ATiKB/JvsNtqHJZWhbR3lJtgse/4many0dKpv9s8qal7SpoyzsxF6tr/TKrYIHXc+y+Kn748a36Zkv0jfD8Aglh036j70zRPwQ9AQi6C1kv78WLnO4ouCH947ykvQOHn90zZvejWSTH20vqWoj08/ctc4ZX6DViCGH1Rv5f10nxSToA7p2rXeTxn/7WTpr9fAO2tQmzoNesXbNYZf9u5+tk0TcEPQEIuhtZL+8tqlp4uKCH94/ykvyluAAV1f/7BeyyXdWFglv9KvtZzs7lqxV/8OLQf3U3TEJeklpg1UHR020ctbq6iO0qQnml9kvoUPpscw5a1xt/6J+FB5BTyCCLn0Kahq6oeBnp0V5SQ4WHODL6p+9OczeMhGJ3xPXsoKFlWdLL2pwv+CesksUvXzk3rPh1n3jno5+1kp9arQJfZXXzQ+zhw6v7efzTu5+gct95uAfQU8ggq5elf3Smln9jK0W/KPtxkd5SXp2lO+QsY5s7lZvMxoiXFyvju1eiHrYwUc3HPVJg11aXAd9sipt8E132fDI711LjzVawb1amLXqtglxnLpne+j6dx27xguHWPx+BwVE0BOIoEuX1Kx+09NnQPCPPhjtNekiXpq9/yDR1Ns2VzaN1SF0/DXSRWLlT45uOGaPJcT37bkP+iFKndrwf30q4rJqk5/XIYRa1fEYbUmPcatdf/Ovy+4yg0/iE42gJxBBb/hJaZNB+Frwo59Fe01eDz5CWdXiojc52qcj+ncCeTwRYYmZ95fMN+Iw4TcgXoI+V6m18vzPJddtGf601RzBLQ95fBDmWCdp20p2WPKkf5odf8P91i4PhEcEPYEIumovWyS7Q9VXhLcJfvQR99fdv1H5kzuKZq5nKbtCvpfruGHINWbOml/W6JUE68Yl6BsoVTom3/9j4PBFC/uZmX2uDuW0vmGOdqJ259IL91z34xafLrD7URGcIugJRNCV+lP2S6lqA7WcwfVzIT0uOMRLJvfQn6HskmzxmtcR74V4rzb41EY2hBlYsVzZdXEJ+tdKqcvz/79GD78lxKGn3yy4mCKvzUKd6qfag1YX/7bSS+u9sbPl5QPhAEFPIIKu1GOy30V3Vz5hed+E1TUi4tJoktVi/qz8yc9FEy8Zouzqt7UO67TL3zE71te5Hk1eGZiLS9Ardjebkf+TBK17vPqo4T+KXn+Eufaw0jbhbinYT3B1iD3bfP/EUW8+efY9tv9twhqCnkAEXalHZb+C7qh4vrYU/ODRUV+UzsHHaFVxiVlz2QLf3yvbvtHhtZ33qXidmYm/XtzESC8YffPrOui/V/x4E1uiHXqF/IObPRYfpsNbtKhhob9El+h06/rzt93xzI246S1uCHoCEXSlmsveCx1T8Xz95GMZ780EB3lYKbWLaN66WNk2vpWOYugf/xN8mfr4Ny3bBRd6hbgE/X/Be/cVbX6m4Ly7tjipk46gwyGhzlS8SpEjZVNbzt/sgYdtLSqIyAh6AhF08dpn7faQbW6qD4j6onQXHGQ9pdTbonnrFsq6yBdQDdr4nDlnNTp8vynvjR0n2y6nZVyCvkbFj5efEvBTHUed88ncxj99n3vN5suE/eY88ta9PS/Vhdfhzvkn/274tQycIOgJRNCVUufIftccrJRaXfBzkfesmFwiuzVOeEN4G2XdfuarkeZx2tHXbbbePguGdF047Ixnf7x7r97XSr5K2K7qvdzacQn6evL7DgYu+d9tR3afMmPh+kPLTX786ZmbXXfuCTq67cMvyld/7drCuWre3RvY3KQPIRD0BCLows/RK+69KSoqEqTmquivynPBR+lUVFQku4ppMeWAeAl1mR6ttj6tldnn+JdUTeSpuAR9UuXP9zPbR2VEq6HjWoW++s32PgJdbfxBYc3o5R+yuEkgjBH0BCLoFftSmG8g1oRc9Fdlvs35vKoc6Cb4m8OpQ6vvtS6KS9C/U+J1Clw6tGeEV3Wkjpmpu50d5XwQBUFPIIJe4Xubv4SOjP6qXGJzPs8oFyTf87v0ZPU8dohL0B+rekDfQ3VB/RTlRS0XbFTgW6fn12SL1oIg6AlE0A0WaJFZK/qr0trmfBx9bvmRLqTva66G3j4uQb+i+hGP6EJ6OdqLOliwBIJ/A/+Yxhfq/hH0BCLoFf62+NunQ6h1N+vqFum+pbpGONr8asVVdAH9WDONAXEJ+s3Vj2h/oS6cQY3fOSDzY5i93Ty475XBEc8Mpgh6AhH0Cvdb/NWzjI2X5TB786laU86BQn5bvPCkykviEvTdah5ysNUrMnx/vTKzgLNvUsejZkc+OZgg6AlE0A2fhkCb23hZfrE3n4+VI6VRVjOLZsBGNZNoruMS9D8WPmaeLpQnIm1RW+WZuBZdl+19XPTTgxhBTyCCXulVe792vrDxssyxN59HlSsrRlsvLoKHFs7hoNgEvffCx/xngi6MVmHXiKvjAa9rupsZtoGNM4QIQU8ggm774+P7bbwsg61Np63DHStv14VxTLeFU1gxNkHfs+DPS8knNl5UpXYJtwm7Fz2+WrgKERwj6AlE0CtNsfYb5zTfr0uApZVDX+lCaHvTohlsFJugD6v1qHd1IeylLJlcmPnLTHiSK979IOgJRNArtbd2yXatN2pRWPuVeo5yqFtB7luuvRbaPbEJ+jq1HjVkqvbvXIv7miwbuJJ+AY2aYe9E0TiCnkAEXZlt2uXpGrRmtuZzhnJputlKp1ZsXPs+vONiE/RNaz9sVdnGtjYVRd5CoLbxew3SsdWqcmc7OEbQE4igV3nM1i+bM73u0R6oZIhyaor3u9GnTgz3PLkOet1d53fVnp228MJ/SyZuGOOkb9XP8tmiIYKeQAS9yjRLv2nKDrTzuuxnaYGPuplx4I2ou30a6nBcyBVoXQd9TJ3HlQb+NrRrkIM7uoacfJWOqy7T7Z8v6iLoCUTQqzS31KVrbb0wn9uZT8Uuq279XaY9Kvmg7tH/F5ugH1H3gT2X0R4N+F25UN59XkHXA2zCdvc4OWMsQtATiKBXs/T79w5bL0yxnfn8rZzb0edKJN/UO/gXsQn6iHqP3HIL7c2A7sqVnovPv1THUaulnJ0zKhH0BCLodtdmG2nrhZlpZz5tlHsj/RX9h/rHfiQ2Qe9Y/6EztktBzyuUv39s5xE6drZ/3+lZIxf0CrTkOYodgl7tJzu/ZXrZemFmW5nOYsqH9Xxd0/1Dg6VND49N0HWDu8Yu2Fp7sf005Vz7m27VcTPhAvfnnWW5oBeAoMcPQa+2hJW3mdtY29qsfLSN+byqvPhxG+3Dtw2P/E18gj6+wYPnjtEebLez8sHrNQEyRUt4OfOsygU9/wQ9fgh6jRtt/IrZ2N4rY2Xrk9uUH0t5eDNa9l2eA58Yn6Dnqcv0p7Rzm/q43rt8ozmH6vg52tHWwKhA0BOIoNdYycZvmOH2XpnLbcxnivLkkFHasUF5Vyr/Nj5Bz7dh92TnO9Ld5fyO7AtG7ra0n09gzF3h+uSzLBf07PMOPX4Ieo2/bfyCsbiE1dkWpjPC3zuYPutqp+7Lf1HzqfEJ+uP5Ht//B+1Shx2VU5PnfObla4Ow2u3i9vwzLRf07BP0+CHoNe638QvG4sefS1iYzp/Ko2WHandOmhz17j7nQa+1ZUxtxzu8k/tOp7uJ7rtjS0vLG7mzhcPNBLMuF/TkE/T4IegLWViWfDubL01R9Pk8pnyavrx2pNORDS5vrzY/PkF/oZEh7l9au9HjlUXbyFrX7exXZfuiT7j+kg1an/3IY1/9vE5RARaLfcXdU5B1uaDnnqDHD0FfqHf03y69bb40L0afj4f7mWorXW+CduGwxu9Puj4+QX+6sTH6n9hBOzDqWeXM+G9Ef96WLHPyPXX+1Bq/4Ibbj/z2qM4Pbu1rbYIBPlZayKZc0HNP0OOHoC90ZPTfLm/ZfGluizydjt4/j5y8m/2FYLd/pokNsPeMT9CvbHyUx9fXth2xZmMfWkS3xOWtBDMoWf22FRsfo//0KVfO/Pifjw7bwvHb9v86exqyLhf01BP0+CHoC02J/svlYJsvjXxn0MYsrfxr/YS2qt1uTd5sfHR8gr54E8OUHm/3rq9VXrG0CVAeB90sSfAJv4iXddnv8VUfuG3b6377fGsXy/6XzXb2TGRcLuipJ+jxQ9AXah/56qWOPW2+NH0jf1B7jiqER1fT9uwZsAfHavEJer1tY+rp943kXa/MoFnuNsXtf5Fkntce3zfM4O3fuenHNY/dvPdhzw209mTwFt0Vgp5ABH2RFaL+auli97WJfDHVT6owPv3N0jeoy38ddKg74xP0oGX89z32NG3D1h873OP+pk0FM7iqRfTbIffY6ODFbxs+//9OkV1614SOh1g5c9RH0BOIoIdZdawRr9t9beT3WOdXUriVMWcXR79Za8B1rW2u7+c86MGr8jW/LfoObEuvGeq9sUz5x4JdhLe5rY/NY5be8vTIX4ZFuZryMpvTwUIEPYGWLpL62f1k3hVPxsm3wwcXRdTUt6gh/BRxOv+nCmiPFutHept+yv6i96Etxc/G3qFOYwP50/2kYLjST19tG+FJGfftAuXQlucK5rD+yk6OfcgBs0YJ/prIZ2oTF00iPIIOYKHBt60fcmGSQ2c5vCWrwA768s9w4dpi1u5uy3WTYL/Xts+4u7heNe/+19Qwz8w+7qaUZbmg552L4oBMGXL8daaXd3da4S2n65/FwOTjj5J/1VWp1UlHOr+Yu7tgwfZWjzqeROkLn5lvvX6X40llVC7oeSfoQObMnfn6TsIL9sec9+vBVu8UiK/ZT951sejzix7H3HHJFA9r8i8u+C6gyOkn/tWaX3KfNnMpn7m7QNAB5NPtpmVPHLt248uHHXHn3sNnrtU1Y0/e+LXW2+u1axt7R1qyw9q5zdZo7WlxoE8Ef12MecfPXLo9eYJZ0Xf3M6+MyQU97bxDB7Ksz+Bdzvj7thOH71ZcPO/V4uLiX4bvesk1Zx+8ssMLtxNgv9nT5uz4zbaziotX6n1HcfGpwx+adPwBu9/icKH2hj4VfIZygo/351WWmGcU9Ie8TSxLcgQdABJnwejgag7wulXp3SZXDu7pc2aZkSPoAJA0+z4nqObhfuf0hsFCiRMcXnqfXTmCDgBJc54gmuf6juYZPeRFF68rDzmCDgBJ84Egme2u9j6tY+VB/9v75DIgF/Ssc1EcAMTLEpLtWMb6n1f5xuKgb+V/dumXI+gAkCwrSZI5pQATu0e83eryBZhd6uUIOgAkys6SbB5TkKnNlwb92oJML+UIOgAky4uSYj5WkKm9Lw36wIJML+VyQc8636EDQJy0ES1Ae1xhJneMtOiF2yk4vXIEHQCS5DJJLzv1L8zkLpcG/f3CzC/VcgQdABKk/ThJL7sUaHbTpEH/X4EmmGY5gg4ACXKDqJcfFWh2PaXXuX9QoAmmWY6gA0CC/CLq5WeFmt52wqA/WagJpliOoANAglwr6uWsQk3vXGHQ3y7UBFMsR9ABIDkOanSL+jr2L9T8rhcG/dhCTTDFcgQdAJLjSlkvjyzU/K4TBn3bQk0wxXIEHQCS4zEd73forwuDfnOhJphiOYIOAMnxX1kvLy/U/IqFQf+qUBNMsRxBB4DkWFvWy+JYr0urtf6hUBNMsRxBB4DkuFTWy6MLNb/OwqDzHbp9BB0AkqO9aCF3rccVaoJbCIPOVe72EXQASI6Jwl7qlQszv349hPPjPnT7CDoAJMf90qDPjPla7u8VZn6plgt60tk+FQBiY7Y0mH8WZn5XSOd3fmHml2o5gg4AifGsNJjtphdieuVjpPNj+1T7CDoAJMdS0mDqDQsxvX/F05tYiOmlXC7oSecjdwCIjQ3ExRy4pf/ZlS4tnd2AUv+zS70cQQeA9F0Up3Vv/7O7XTy5U/xPLv1yBB0AEuMdedD1HN+T23JCnP/aSL8cQQeAxDjQIOjbbOB3bn03ls/tG79Ty4YcQQeAxGgvXbilwqFtvE5Nuox7hWk+Z5YVOYIOAMlxn0E19aEb+ZtYn1cNJla2nL+JZUeOoANAcqxuEnTd6g1f85pu8Hm71p/7mlam5Ag6ACTHH0ZB1+0u6+NlWgcId4GrdpmXSWVNjqADQHK8ZBZ0rS/82v2k3jH5uL3Cce7nlEE5gg4AyXG2adB1ybzBbqd04GUDDae0dbnbGWVUjqADQHIMKTEuum57usOL4975dnvjCRW7m06W5Qg6ACTIFuZB17pshfO7uZhM+e+924aYDjuzOEHQASDFV8UtdMJKZ1puev+nX98h1FSWtDsPVCPoAJAki4cMutZ6lZMu2dnSt9f9X9i/8zZh5zHTzhxQD0EHgCTZY1D4omutt++87e29+kaZQJ97lr18BdPL4Go7oae9ZwO1EHQASJSPdGQ9nvv5sjXPnL2f2YH3e/jMvy//6EaTxWfzesvVM5N1uaBnnv3QASBO5mhrRj/V+Y4fTjxyzZ+mPdumzcSuXQ+sdZjyrl27Tm9zf+tPP5l50Us/3NH5qdGWDrpdvwI+eamWC3rqCToAxEn/Q3Wi8Q26KwQdAJLlO51kD7Yv9POXWrmg55536AAQK8uN0MnVY6lCP33plQt68gk6AMTLmzq53iz0k5diuaAnn6ADQLz0NNoUPVY+97P5Wzblgp59gg4AMbOsTqjRCwr91KVZLujpJ+gAEDOlw3Qitete6Gcu1XJBzz9BB4C4mbi1TqJfC/28pVsu6Pkn6AAQO2+U6eRh11S3CDoAJNDlOnHusLQxDBpB0AEggUpX0gmTY0UZxwg6ACRR/711olzH+3PXCDoAJFK/P3VylLxUWujnK/1yQa8CF8UBQCz1v0snRdsPCv1kZUEu6GUg6AAQT6Ub6mTYetVCP1WZkAt6HQg6AMTV3R10Aiz/n0I/T9mQC3ohCDoAxNaUIh13HZpxOZwfBB0AEqxr3C92X7JXoZ+izMgFvRa8QweAOJtzqY6v0Udy97k3BB0Aku2g+TqmSl7cstBPTpbkgl4P3qEDQMzdsJOOo86tC/3EZEsu6AUh6AAQewdsoeNm1LRCPylZkwt6SQg6AMRfny9v1DFS9jI5946gA0AqlB4wTMfEgPkPF/rZyKJc0OvCO3QASIivPxuhC2+nw7sW+onIplzQK0PQASAx9pi5TokupKnf8ua8UAg6AKTK4ItalhWo5lucczCrwhUOQQeAtNnyvZO8f/beY7VdZxf6vDMuF/Qa8ZE7ACRP/91PPKytn5RrXXbhhleOL/QZIxf0OhF0AEimvi+8/ep2rmM+4uhtNxlS6DNFBYIOAGm25Rsnv/hUDyctP+3cf2bO5kvz2CDoAJB6fe9ZfNfrRk2wVfIeRcN2O/JTdjmPGYIOAFkxfucfn9x2/vpPXRry1rbTLu583eV3vzG3W6FPBPkQdADInPZbbvD04o/8+srmR/UednSXC4sObdWqVatOtds9uuJ/GbNFl3WG/Xxe8az9Ry7+9E2D+xZ62mgSQQcAIAUIOgAAKUDQAQBIAYIOAEAKEHQAAFKAoAMAkAIEHQCAFCDoAACkAEEHACAFCDoAAClA0AEASAGCDgBAChB0AABSgKADAJACBB0AgBQg6AAApABBBwAgBQg6AAApQNABAEgBgg4AQAoQdAAAUoCgAwCQAgQdAIAUIOgAAKQAQQcAIAUIOgAAKUDQAQBIAYIOAEAKEHQAAFKAoAMAkAIEHQCAFCDoAACkAEEHACAFCDoAAClA0AEASAGCDgBAChB0AABSgKADAJACBB0AgBQg6AAApABBBwAgBQg6AAApQNABAEgBgg4AQAoQdAAAUoCgAwCQAgQdAIAUIOgAAKQAQQcAIAUIOgAAKUDQAQBIAYIOAEAKEHQAAFKAoAMAkAIEHQCAFCDoAACkAEEHACAFCDoAAClA0AEASAGCDgBAChB0AABSgKADAJACBB0AgBQg6AAApABBBwAgBQg6AAApQNABAEgBgg4AQAoQdAAAUoCgAwCQAgQdAIAUIOgAAKQAQQcAIAUIOgAAKUDQAQBIAYIOAEAKEHQAAFKAoAMAkAIEHQCAFCDoAACkAEEHACAFCDoAAClA0AEASAGCDgBAChB0AABSgKADAJACBB0AgBQg6EC63XTk8P33KS/0LAA4R9CRQtcWVWrmavxdq8ZfR/m2X9WBi54UP6L8dF1h6SHKg+urZjdWxdOK1c/e+RHHebh6nCvDD/FH1QgfRZwJUAdBRwp1qoyY3svV+JdVjX+r8m25qgNr+Z8qh1c/4nrlwWpVx1pfxdPK1c/FmhHH6VU9zrLhh1ihaoRREWcC1EHQE+jb3pX+aOpnLq/6mbi+V5K6qXc+171+4po3HFjAoB9bNf4xKv5B/7z6EWU+3qITdCmCDhcIegKtXfUrepWmfmadqp9pq5Ktu25Uya2v/9inQEF/q2r8JVX8g9625vk6WLlH0KUIOlwg6AlE0Gtcutf0ggR9UtX4q6vYB728rOa5+lS5R9ClCDpcIOgJRNAXGTR8jwIEfb2q8VdQ8X+HPq7mmVqg3CPoUgQdLhD0BCLotd16nP+gf1E1/kkq/kH/rPoRH5Yq9wi6FEGHCwQ9gQh6HR2W9R70/1WNf56Kf9CnL1b5gI6/Kw8IuhRBhwsEPYEyGPQxXWq5anTdopfN9B306mkdpeIfdDX9q6dajXl1KeUDQZci6HCBoCdQBoPeou7/3H7lOcVHLCp6j+6egz6tavy/VAKC7hNBlyLocIGgJxBBr9BnjecWFn3odL9BX6tq/JuVbwQ9ChaWQcrldICWhZ4hGiDoVbq90q7mn+nyfoN+U9X4V3j/x0nQoyDoSLkcQU8egl7jjA41/37/9Rr0x6vGP1H5RtCjIOhIuRxBTx6CvtDiJdX/gNf2GvQZVeOfrHwj6FEQdKRcjqAnD0FfZMOaf8DHeQh6/64Htelf8X9MrBr/GeUbQY+CoDfUv+uQNu0NnsO+XSeeFelFgEsEPYEKFfTSnR94aFZx8c0fX7Nz4Col72zy2F2dV++y2rDeG+64SzfxIQ6559FpVy8ReJX7Is23q/6JlfIE/duF/0O34/5+8+bi4nPe+mRFwSz6XX3vJi1Gftfs8uFfFc/rveeww7pcXDS11TaVYw6u1dUdGz70rCt/Hf7VXb1fLT511xbv76dCKH/49pP/Wan32OJz7p7WtbGgf7fwf2nf+oPNfihed/jJm7RR4TW/98vLNy8uHn7bj7WefOtXuc9Y/JU/Vjisy2ErnLfXekuZVESgfa9Hzjlv2DJd1n9+3mNz7rcX9G5L/b3Z5sXFe721ycSF/9sGTe+2Nn7ad1u9fG6XJYe9u9tF/y7X5FXutTbg3XnZh84pLr752C9mO1kCqOfV955R8W/6suFbNfg3nW/95OV6Pf3JzJHNmn07/K/isb2XHzaqy/dFO7Sq/A9raMPBd39m872Hdeky7LW7vjlA/i9oucdf2OfrW+S/HRCIoGcl6P/f3n3HR1ElABwfgQNBEqMJSUCQIhA9sCDCCSJgAQVpRxHEQhcFRFGwg6joSRFFRcSKgthAEcHesQCigA2w4nln773e3Gd33uzOzHszu0n2PWH39/1Hs5lslmSzv52ZN+9tqB3XOr6HqXS52ML9A1vrfHyY+PClYZ4LxabPGRLxzc957iHfkZ/+S74tUWzW2vkG7j21u2x+X2f7gb+mHXTrFrFF3wI56Audjwp+ett54Yqrsijk5T6u5LPLf3zcPY6vEg96O+f/L/N/bavr5/fwbVv00Pcjyvfq3OHOJd67KKq16Qll0KeIj1cN8lyT3/Oi+IPzO6u2/6cc00zcNtb5sN3eFyaWcLHtp55OliuTQS9cNNv3wxn1+zWBLcaJh3VT6P0fKbY4L/iJpQ+O8t35uoNuyETQO/7t5K6en8yXZzg3PxMR9BqfdK/nfST1rhszMjzoncSHB/zq++MaIX9BE/FPD5lQYLPz2Wmqz5VcWrXh2VHP6UDQ20969R+ehyMJBL3syVmeH5JtF+06XrWy38fOI0xccPnSFTc66wx0aXif+t+E8iPouRL0r1Ot0dFMvKi/4N7Q0Pn4o/gHTb8L/lnXDPszfOth3yuaY937ctnEZu/HPyhYOzG5dV5p2kEf2VxssoscdGfQ2pBagcfSYuqCsIc+c6CdgtNMZ3j937xfW7blGNX2ixcebKWrxnNXSl+f1/0xRdDHxD86rWVg4zp/SPFw9ybbem5r4ruX67cG7qX+96oEVS7ohUsSq8Qk3Xi1f6N7nZubdwi7/wvEF/7gv3ms//1jXNHJl1Q66LtVCdxpj6Hx98MHhwa9w9B8+aF0O6xVWNC7xz84v00wty0PKOca7J2czx4qf+acDWfbKfiC/swV01Ns7gt66SeJ1QKSuv5xqvQ4Wot/mfPRLt09myuOdKFiCHquBF1cOm2/kWLBkeQrvwj6rrH/f9K/6xnXoqpy73NHt7ABjc4PCfqTsf+vvrtv42ZpB90a5KuTL+hPx94obEhc25Y0XTkR6vDbfHsaUUHvEv//az1f/JKokaxokJwWpUkhr7w/zpWC3jv2weWKN05f3VCOoH8SO6zws+I7Ln7JymjQC25KXI7g95rv+OwAcevtYfc/y/l8nu8s7vCr1Pddd1pppYLe4G3FndaKnbIpDIvrTj3VD6Xn0pCg7x77/z8V7wTrXZ6ZoDdYlMZz2hP0sx5W/LlEBL3wOPU2k31vdj1Bj+8vFKzwHBKy7c9T/CaQNoKeK0EvEPueg1UHv2N+cT5fd1wg6LGjgmPUB+z2kIte8Efo68Dk4NFC0aPYblqvwCthYfpBP09s8rAc9Mstq2AP5WMpVrymvxTyaqwK+vTg0Y6lTuLVikIL5bUl9KW0jxT0Cyyr4FflthML0w/6ZZY18h/Ke+myxspg0MvcN12yKjM8250mbvxvyN3XEL/Xxt4bm3wVeuevt6pE0KvfrLzPs5+wrCNwnC79AAAgAElEQVRC4rrSlymvFt4fvyfoGy3Lelb9ex9WkIGgnxY8+pIi6BO6pbG5J+hLA7Mwe2xSB/3E2P8v8286IJ3fB9JB0HNmUNxJ4q8n5OT3kS2cT59sBYL+i2VNUBwujbtIuht1ZRz9XlEG/U3LGvdUYNPT0g/6LmKTnT23iRf+LZb1XMhjKT4keD/XdA7ZtOVNW6ouPOqN2tXaNOpeq/Fb8Y0nBn6U5ysPtyckx7CFuzz8yx+Xgn6ZZW0I2fip9mkH/V9WwZKQe+nn/gYyEPRS6XSNx63Pe7YUh7gnh7zp/FZ8zVDPbW8FD4t71exQ4aCPVBzGj5s9zjpHHdePI3Zu81Yog/62ZY0N+6rkkM4KB/3NsOf0u1N+SDyn92ucOAO1NuxMe5tbPq+66Khhtdss6X5d4+Svd2nU7v/hyqAvseQ/ytCjhigvgp4zQXd3fw5Sf0Fv6QVDBH2WNdrZHy3+aP6vB009MTnhqm3n/Rm4ly+Tn+vS8KQv2/b+4Y1zxTuF2MC1Jqqgr7Ks34MvBmvSD3pH8aJ1ghz0tdalzqtll52nfnr477/c6vkOxwQuvrk08dqUt/OivV+5obDwwP+NWR/fYamz8drgoQhnZz4ZvR+Td1x01+u/tz5q2JyNxyX3dtKYIzZxRX1M55s7vd3mg5oDxRupugXBoK+0ljqfyxv47sYT3/Wd+RdDAdMI+gR3Hdj+nR48/J+DrvPubm0NGZ5dgaB/7/mpnzzgh7a9L69dK/kWcfbpyS3nRb/pnCo+7Tmt0Er8McQMfHDTirbvzFzvSfzUCgf9bs/Pou7fP/j1oNoNxU95qnvVYiCuI5KnFYp3XjbtxbYrLvoxORiz+CdV0NtY4wZ7/7ge8HzXvEMqG/RXks/pPgNWxp/Tb66tFj/LX3fWN/KdvJ94DtZpNO3Dz54oLLzv2s83xv++ekx9T97+ieTZ9rynPn3ulrZjBrztGZz4oirov1vWmuDbhkEpfxtIE0HPncvWxIvFYvUXXOh8tl+NYNDnWw/G/tP4N3ecyxG3PJ74Uxzsf9m/L3FW99AJ7dwbm01JDJvp5Auj2PgV65DAH7htf5h+0C1x4VpxqRT0RwoOjQ+P+knstBY8OiB5gv9l353UcI+3F+/hHcTW/jfn37pz4DT4Ht1j5gaPEtj2C4d4+nTOIcseSOyWRDsrGdO+X0xydywbXPNp/E3IGcGgX98xNmQ8r+G/xAmSU3dsnPj6fkemG/T/1YgdaagzdU/xoyvd943kQeNlmQr6NYnX706TEr+jXs8lYrDekgZ6yEd+YjqKL7nYkt8C2C32SO7qP3p34k3kjhUM+v8SP4e8Wf9z/yaafhk/gr3vGaq4jlzsfsXgMYnnQPvrE284ulVXBH29dXjsP7V2dAeNHDEmOZBih1MqF/RT3Hc2xbW9JzY6XOD8xfz9mcB9FLpvP7pu8l7oMK6qc/hpSfDqhxLxImPb/Z9L7OSXjn3BvbXe8YqgP2ydkvhBhUzcjIoj6LkT9IXiz0d5MHW0OPD3uxUM+tTCFrbd90lvitt9njhM+Kr3TgrcETIt3vGVu4G7a2V/rAj6aaUipvd+/+2McdbII3a6YM7t5Qi6e7h+uBT0T2LvFPbznbo/MjmCyjfe/zb3xTi4c3jK/PjtXRQ7NEnxV2Xbtq+UBj9Zl/5xq/ckeJjEoe860/yHzFs9stW27wgG/ZB9Yu8yvAP7C8YkdhCnpRv0pbFjn7t7X+ytucmX48LMBL2dm5X6//JtO/plcXvensl/hLjS4QHlva8SX+BeSBlLt/tE7Omv02fu+7O+DSoU9ILV7o9htm/PtOPa5rZ94umquB7lfsWcGr7q3VRPNTJABP3ntzrb9mDfD6Z91cQf14bKBf0L8SUn7BvYeLhzDqRfYGjoiWL7j4K/+Sa7xm+fmHgaOo51H2dD/5j2le4I2usUQW9tTXP+p9/v7xwwuqxjr+NvH2B+kaOsVc1OgcVZsibod4hf6W1Rl3NfKwV92Ezb/nuvwOa3u2PApntfva4WN9b1Dv/2vbY87h14LF7pjl8Z/0+jNYpB8+kEXbyW2QukoO+zu23/mjhS4CiY6T614yOMhQbiHPgo7xldR4kzoqvzmWm8p1BeE1h27MCzrRTuc/di84MvvpZVuqLf/4JB32s/2/46MKXA1e5u6cXpBn3fgXbe0MBPvSxxrPkPKyNBf0TcXY/gW6VS921eH/mdkW/fznWF+OSB0rB3+8bghYijb1ZEMf2gT3B/COcGr796popdPEMR117u4e0BwafxteKoR9HzctAfftq2zw3u+U5w/7iubFWZoJ8uunqr7x2bd1RDZ9/17o+K5+DNiWGxCQ1iR7pse7BvnoP27pxOvwenhtnJvXbvTTnoy2rEL80cPKYip3SQCkHPoZni7nJu+0q1vbiiuVs7KehXrLY7+fY54t53X/G8k6u8G7pad8HJ4lNXy0GfEbtO/Erfvnu5gv662Ga5FPQVxaqDt+649zzPF3wS8XJ5inPu9HHPEYCgHoo9Eo+yC6wU7hHfv4Xy7PHcA4JBf0T1vmxA8BqBVEF/x7Yfke6lxP0tHuM/VFDBoBesC/0Vlu0vHTNaaicvOJSIc9jrkrcUigb1k+cKKhRv0XYoq0jQ3Z3Vs+W4zT3BXqt4trgDvX6R35ZOEZ9aJgd92FP2u/If12/uL3LvygT9RfEV1ys2P905C7bYO+HAp87m9TzvlxLudw7/XOi9bW9x/6vl58mEvOQg/kDQj4o/rNryzxWZQNBzKOjuvqnisuhziuTDgu516PbAxClcj9ds6W+2qfgzrqWY1bNXP89VK/6gx17EHwg5vptO0N33CkdIQe9jv64YL33KVnl6ko3OLQ9FjRdUzsIV10rc4b+tChreRXUGQ8EN+v72RjkcrdxBf3emGfT9lHvhTdwR+xMyEfQhtvyLdz0jjim0TtxSKmYoqxW+Zq130dpXxU3nRVzO+G0Fgj5O7FTnyadQLGtV0cmKuIoTC/3Okr/APROV304Kep+8KvIULJb1gR285KQCQf9RtWxR4Kcz3nOTGBlzt3L72s4nvddfipMzed4TPy7nPJVdfJYU9E0X2nYLZpLRhaBvv0Hv1yzCroqgPx/enRXiU5PkoNt53hsTnnF3jpIHft0dl5Wq7S9yPte1gxT0L2z73rD5nysXdHuU8n7fkY65F4ghabcov8FwZ/ekZ+gjWG4rp4JN3/XiDhaXpRl0u7NqhQx3F/2KNINuf9Uh4ldVgWPuiqC7V0ueGXFgInlZnjVMPOcUXTxM3JNnTMRHzi3TVf+MshOk96hpB929Pi4xa6JPYkTIbvL5rGGqL/hGfPIxKejqtwzW8eKzPUorHvSCfqqx5q5xzh/fvfIPR31q6VI7OLqzQT3vZHcBz+dJzzoR9INa2EXukFdkHEHfDnmu1EnFvzjLjaH7oeKVeIcSRdBnRQ6L97y+it3cWwNnrf3zX4v5w2PEK0J/u8f9lp6gB6YIFU4R+W5eGiyyfLbR+2qpmh48rpdisrpyGRZ6riIs6MqF5N6z5SOdkUGXLsaPaypGZd2YiaCL59xq5faTxONInl2+xg59ayXuaWDy0ESvvKgrMcUotYGef1i6QV8m7917HJwnx/UHcZNyPuRS8d7iNjno36kfgDvdz0sVD7r7j20a+atqGhw24HkP4VXiHLbpXyYNmJGmhPMeIawmBb2/OyMzdCDouRT08eJW6fj2cvES5Rtu2jD6omB3GN2ziVsGR15VOlA6O5q4xi18z7ZyQe8fMif5a8F+P+Z83DVkQpM3ovbfY9e8ifv72qog0aoW1dMNegvV8hdWxy7e6fdTB/2r6CdYnfCFfNIOeocWkRei9fNO5x9TNj1s33iuLdX7m8j1Cdzz8QvKH3QxjKB+yAGTPnJc1zu3DFZ/wYPSP8oNujwG0newa5+KB/0/zi3NQ1YH+m/wr3eKPD+T4lc7Ini6o0g9tEQMZa8iBd2239WymhziCHouBd0dQyRNXObuX3ymCHrYkWb32uvv3RuqixtCFsu6Sprqww36zgWagj4n5Cs2B08ST5B25lQHez0nbwPEHtgO5R9GFldWN+oUviro76o/faiclaighx0Q+Kf4vDzkv9xBfylyP849zLNQal89adTUTeKeRkhvUIs8l/5b8nuJM8sfdLHq399DPv2cHNebI49mfSKdWmgkDfDz+Uw6EFPuoP/p3LI15DuI6zRnBv9RIf8C93qCJ4M3qA+9uJcYFreXgl4srTuDzCHouRR0S4zOkS6LFrdvLVAE/e4UFbrHvWEn8T29q4PJQ/L2l4MecUFY5YIe9sL9mGdxkjjnwjn7rpDtP1csue7jXj3lHWNUDk2jTsAqg+6fDS44Tql/utehh3yX31J8vhxB/zPsoJBvpuD5yVtuF1/wcchRaO9ZoWFRV61blpjA5IJyB72kSB6LoHpWeuLaXL5ITj5YUNRBumwt5Du0rxf84yt30C9TXMPoMdT59D+DZyjCZm1bHxx+KI4qXaXe/CzxcJ+Rgu6fvA+ZRdBzKuhi17QoMOTIHZ7uvxJKBL122MPYwfn868GTasdHrubmGYZTL/olp/JB94729rpBfMXmwBU4X0VPs/62lWpZz6KnU41qU3JHgqvHL6mC7plbRfHnXCfNoCuW3fZNkzah8kF3x5qHXHU8TToW3V4McHgtsOUZLYIFSgzaCNuRrhn4Lacd9NNTHMF4Xoqrf1lbibs8m7MQgCfoyfH9AZODT7lyB11cWHpzyDd4Otjvk6Sz3j6Dgnv0V0aeZiooDp6va606CogMI+g5FXT3XHngdaeqMsWpgr46uRpb3I7iXvwTtic86Xx2ohT0N4wHvXpwQSixH3l0yPYLpYuIwi4Ys3uuLPeJ5+RboQ8rG3Rxsr+4kkH/rKKj9uWgi2IXhZxVmSIfMhLz+jdvrz5qMEmePCFs5tAfg3vN6Qb9iBRvsJpJcU1xncMCadBlqqDPDs5sUO6g/yv6NNIXwX5vCr+80HNlfvKHWSfymIQ7NcObwaAHXpGQWQR9+w163aoRHlf/+eyvPAUrTr0+ZZUr6PsHxkL3jt4ZE+ep86Wge/e5zAS9nR04pCoGENUNifGD0qTjYbvosUvlav+nvLvpu0UO7ipH0A/PTNDdIxjJ932P1Q7VIDLoC+WTAF695Wfeh+Kbf6P8LV9ZKp8p8hyw9/kuOB4v3aAfGHX9pWfegWRcD468bCDxa7sv7aDvGlwottxBf9O5pX7IQM97gsf8NyuWppVfIxJLl5eIx7MlZPtbg+9RRdDrhmyPjCDoOTSxTHL0bLFvOPXBilUp0wh6p8AZzDHibrxLSngcIr20/2VBL7ADg+ZmRJ8tED/wTyMehGi+o0v3f+9ZnvFx7rEN1RQdf0XQ3SPEl0uXNCj0igz6UdLbOJ8X5ePCNbqonnc1uirGMdwYfdr37cCozbSDPiJijjV10N0Lx6U5j/2/ttPSDvq5wRNU5Q76/dEjG8XPbl5wLoSu6nej7eoHRsV3iB4C6x6RT05TT9BNIOi5FfS3ioNXqyQPi+Y1rVDQewZPlz6nPmbws/TSvu0E3b3eK1kwr9FF0TsjMaWJq3KE+v84bI08qadabKWVmAO2saBXzVjQ64ccSDpZcWxIrFPTt0R1VuInRZQ+Crnz1RXdQz+zwkG/W/1INki/4DSDPrviQXcTrC7uOeLk2yNRE0V4jA2e8XCDfmLID1/8RbGHbhZBz62gu1fYNlQsLRK8ArWiQY92wrYYdKu7c0MV5TH3f4vNk6uCqewmLsP3qHNhb9WsuTkY9BR29X53ccmB/Yr3xrvl2VMTQU9hk8Ggp3CDwaC7N92rPObuvsVIriVXcGXU0M82zieLxgWDnsJeiXtgD90Egp5jQRfHOOt4Lt1135qvMBL0nhkP+qwMBN1dEuxL1RU4+ephWkHDnxaXL3t1nhpYc1Il54PuG9MxvLM8GV7pKOe2n63yB73qthP0JiaDviJiovvlYr7+bh2lqWby1ii2HyIOUh1nlTPoyWtYCboJBD3Hgl69hdQ68Wa9uJeRoDfOeNDdOWh7VSLop4opy+peI208cv+0L6Btf/0sESOP4jnqeU88cj7os1TL561TzBxwdQWC/si2E/QGJoNeXQw7qL9K2nr4roqZD9xrGwYfLG1/xNl28Ph9mkFPzl1L0E0g6DkWdPeV5DtpVVXf0oj6gr4x40EX42/t0ysRdGuRuKl+78AFVue7r31Fj1ppaHXNRQ+5U327Bj663Qe9wqPc0zvk/qtyjKBnVcCvnVv6dahA0L/dZoLu+Ys1EHRrnviSrt7ffUyhe+FrsW8Rhd3FrX2D72ovFdfM2N0alDfoyXl3CboJBD3Xgi7md+laI/iK7xsnpy/orTMedDEhWF5ZZYI+0l1T1T7uQ8+h9bmL3IVNI+aJC1qwW+uvfP/m6Xds70FPU0WD/pzvXprVk666WKy8QC29oL+3zQT9XrNBH+522N75T8/Yg6ZHiV334J/ejMTts1Z5Trzf96AYSeubvyK9oNdNvj0m6CYQ9FwLerM6gRcrcaVwnWaZCvrYXaKclemgu8tE3mpVJujWaeJuYgtONRxw7L+uuXbl5mFPJXe2Z6c8cO7T67KNYmrcmLtaRW78m3R8clu7bK2yQS+KfE7sktyP8+4qJk/YPmoHL4LyBn3/6DvvYDDo4yMfyf1mg2595q46aNs9frztk3+NnbBy87CLk8/puwJXmO6d/NTkDzbs+OHYq+8c+rNY6D2mYYkc9E8j/8Wet6gE3QSCnmtBd6d8SsySsi4wg2vaQT83cMmROxI65ZJhmQ26e73toekHvUy14PfYZNEVjg6ZjDzCuN5igbkUV7wlZp4NmwXfeNDdiQnWWpUO+iL5EaV2bHBRdLEOQP1TlCdbfkz3ftMN+nvq9w8RQXcHlibXLkkhVdB3Di7XU5GgW3sl9rlVzp4bvJfzxNg3teOGKyZnCkxeEY6gm0DQcy7oYtGGHu39y2GtDAv6g2Hf4mLn8zWDs6WFTP2qK+jut/VOQp1icZYjlUucnNYz/LXs0OVWBbQ7z31B9SwjqfChcsiX/qAvTbGQXtSJjjSDPlM+H5Ja9eLAcLaH1HPv/j04P2qGgn5D2Fmo0KC7a7sm14FNL+hh6wFa9wZ/khUKunVp8j2lZD/FH+qHYvS7ysn+t1PFkc9EGUE3gaDnXNAbdPZNrSnmdO4yMizoL4d9i6MDo9yelOa3NBJ0cbVNclLKZNA9a6/7zFBfpDZ8njgdEdTluQqtuRJ7Qe0aPQedY5IdXBfMTNBD1jRNzCKS+g1GyqC7K9UGL6GIJmZLaCQ+PD9PPVP6C/Ly7xkJei87uKxLqqAvSDFvWljQG6ZYwPVk6azDseUKunX6MndNw4B+/1Y+p5fPDw7pFAYHn5zNU0+f6EPQTSDoORd0d0ZMZxbngiqh02c2jF4MraR+YP3EPSOnmtIV9LLJiuPV9aPHsQ0JeXGs/qR4lfI5YVP5aqRaSj16181dvWuZ4aD/EPJdPlYshFLBoLt3lcbV+B5j/LMliCuq6wTXSP9ZmqsoM0F3g/1F2kEvEc/lAeUMevIcuV9ZneClkjdEr9AbFnRrwcrEsE6PiRtGq++noMkPis3tu86TJnReF706m4Sgm0DQcy/oYimQUR29pwsnhAa9hbzvHndHcIWTueUdSpWRoItFpewe7eSgh70XWata3eyGK5xDDnmjxJRZsbFc614bOiJkdYv0FErTlSnUKIpeB1RX0EPWsra+F59P60K96KDvWaGj9+eIH8je4dMbesZz5vXKcNCtzv4jBEH3yYe/xTD83csZ9Lxm0d/hIGk9t+Tk66rhBIGgP//HRPk5Pfu18fuGLH43ZGo3529+sljE1rbteh9NvclzAWFwcsWwxeglBN0Egp57QR8p3rKv8Vyr6p9S0xd0z+yNPs/agROdJWLFxF9MBr1UzFtrL7HkoAfXfQ+sNOW90Nn6PD4ovcqOTQosq0HhaZOuvnbpfYXpTsYerqROOjvfD6gHfekO+sSSyCdPUfTY/LSC3iwv3Vl5VI/AuUzt1BYhp7TdVeo+znTQb3a2Oyake/PkoIvJcPop/o6igh427s5dubC39Jv/QLl9ryJV0IfGn3xb33ef09/evvS+wvBfasc58V/WzoccGRtnMmOXsdfvNeTAuWH/omXiAaU7uoSgm0DQcy/o1vxkSAvODj847QY95LX4bWlkldiRqh+4CElr0G8SG9i3e2+tHzGTq2WViROUdcuCb096VOLgeoiz5Sm5Qn8joQtwawp6yOz0C+qWc+crIuiWGGl4ZfneG23xjtwUE820iHXG5wlbmiUpM0F3fx9DlJ9tMF0O+szwI12RQffPkSdNZ+x5AGK42tHK7Z+zFUF3Ljs5JuTgelhyb07zPcmd5Rw2QNBNIOg5GPQ/nc/tUGJZr4i/yjURQa/rmSQ9abnYbaqTfMc/VDpOqD3oO7npHliqCvoJyt0Rd/Rey+RN7QdHj1GquGPS+Zl8Ih7RRyG7hLqC7pm2T159r7x71eqgt458bxXGHQa3l2ddc2kqQ8sSswHlPZrhoLvToKsXZnVnFfQG3f1DapzqNxgIepFycEET8cfVub08i45q9qFezRVBbzUq4nesUOiMW1+U5ubuQYHBab5VI+gmEPQcDHoHcWx8hGVdIf4ofTn0B/0h+zXVnXxqB65aS86uUV91yk1L0O9ILIfin91SBH2/wIVpjtLj5CruK78eZkZ1xRh82VlF0iFWE0F/KE+eut6yTt9BfPo3KwNBf1Pc2ZUhpz+in+OxAxutxCmiW+StDhJ33l31/K1E0N0h5XWSy6Mlvdfi1jpS0Ev6pn2lgjfo+9nXlUQczvZekPdgcMyKx8P2KPkJvCo4PU8K76S4TDWoj3hAt6W3OUE3gaDnYNDdc8jfWyUnhL9IuEH/71ZVZq7JU6zRJl7P7YGhR/k6PpvJmeKuFuug2fbFpaqgX24Xvyl/1XhbvpTMHVp3U5o7WH6F44Pjr63g9HkpLlAWF2DZ/WYoP328nqBfbu+guBb5KrdmIQO2yhf0UvdK6BtDBwi0+sE/RbvnlzS4xLIOcf636C35Ky9xn4Xhz6EmL1Yg6O6JAruWfG3X8hPsK3rI14QPEF9RN3x2oDWrpKB/P9neIG+41H1/9468TqLdRT5g9qxd9L0c9Pfl+VojiX9B3ZAxM2GTSNt5wasJk176M/n/BN0Egp6LQb/W+eTixBjkS1VbuRPLfGoXSz09wN0hqett998SfZXmoIoruayndwmVSgb9+SXut7PrnWapgr5bFburtA96iHux+X6eG2937+mhafcp10SPtMBu/r16bNBZYs/JDjzAoKvd799TcX7jiLc36gn6pHx79hGh73fSPTMdHfTkKIeW0jnwuHZjdmgePlndvrHdz7hzVV/sridiz1Pvo4++ovOSigTdvdrQvjv4bLhhsW1PkvfQrSbuOnvHhFy2OeRd73X9IuifTlXMmH+/mOHB7nqG59a57puXTsFlfC8otmvOlIN+vftv2G/oAek8p90zLXkXrj04nfe1rdzXgDoh71aP/yDPcyU/QTeBoOdi0NuJPds9hzn/rVIQEfR7YssqvuGfyfzqxPXaztXsQoGYsNK2+6+Vz14XHjbQ/6ArE/S5x/7imaYyOAOICPqOh9l28au+R1JyU2KlCe/ceKM9d1bv3rfn3bTbmU+kP8Y7dhVyUfcd5V3QO9w9vb4prn0rEHOh2faVnp2auINbd02uRpbhmeKG2fYo/4TlNWonfg5nWhkJevvEsjd935f3d++Y19e3aEmCuHrhKKv0yojBVwcmfpu7yvPYlr45qL7v6FP6QR+dWAa3kW8m44J9etj21lLVrG1ihibbLv5DHlrZ7JHYon07SUHfIzaHz5JzfNuOdS4di/3V+W6v5d7c0HfopMGvsQNAi+SgN/FMEVPnru8umvLkmYXyoRDP901ubne9cf6A8759pUlZOiM/bLvaE9Ina1z2QpHvJ0TQTSDouRh0d6fHpZ4OQwS9mvWPWGcOO9+9vXSVGM4eO13u3xU/ILkceLd5O3leDUoP2NIy/vpyb8WC/q53wc5BjfZzxxmHzIgtgt57Qez069GXJ15g238r5quNvfb59ukG2bL81S/8vOiWa+amvhDd2aXq8tonMzxvjUpH3J2YpSvlSKMRyXcU+9+ZvEzgjDs3FnlXI8ts0NccHOvh/rsl3rqMW5sYlJD+DOkpgm79J/lPG7zhQM9PvezSoY3Dhru5w8Znu0eR8pRDM72ruTV+1rvJ8G8OOiE4eiH9oFsXJe62+cJEb9vvFh9+8WwHVdBPEdcexv7qBo31Tns+d582zt9FLynoVxXELiDv8nXinErBpS8nv/M5ykPctn1028RvrPrnseGcD3T8WjEIJHkEK6nb6kZTB6if06XJv42kyR+9PGfTJ48pTndYVqmYzSZ2PuTHb71HE3qtfLBHcJQ+QTeBoOdk0P/n/6u9IyroS6zPnN2gux6c1rvtlgFvJ05cKyZXfcR7t537PHzQzCnjT/rvkv0Si0R0r1jQI/1REhL0FdaG+H/zHtpjfO+2m49q6Jk0q4X/NMOR/gVPfeq/++/PIh6jZVnumum23aNPta+rVn2k6mHDrkvsaNl2vvfVLlVBbDvv4vV/bKi68I/X1+UFapzZoL8pXmU7X7hsyifHPr1s18T+rm13OdjKUNCtV70/zH4t9/j+31OenjfnuxsTE+3+rLgrd4TlBPHms5b6O5aJJ7qj74nDjqo6Zeayn0/cmtg9/bhCQW8gLjeMW/3GzFvarr1od+fp07jjOOW86rt4V0IpWn3VH69u3nxb62r/SDwP6pRIQV9ijXUe6OL1G15sO2XhoFs99xE4JtHO85C6vPzFeRf0/vzX45zf2O3WG4qgV59th6p/4dM7ST9yzzM2qP/GKc9LP30/bxUAABP5SURBVKTl7iyNcT3n//O2z7e8+un6F5xLRmI87/cJugkEPSeD3jE5cVTsylMrKuizPEcTgy6UUnqbHe3ujAe9s2JNMHdQnNUucSg7KDjsfNzdnprJLn4neOZSdU1+GDHjWZTSXyK+/ic9Qb/dauBZHNOv/EPcQ4NeMCfFj2dRxPIkdoq12Zup9iu9HqtQ0K1XQuZAt/vdYY1WL5SyV8hSAK7HLSnoJ1qWOO0lez14IuynkGnWYwsiPqy6TKPZPZGrp914bOCS86bu2Ey1d68PPqL7ItZyiSnyfAOCbgJBz8mgW7Hzbgkha5gkF2cpFUuuBjVWrBG+OfI1xLfaYkaC3kd1eEEEfaZlLXevwQpQjOufcdhD4vJfpa/2DX+Y/4x+jNOsNLSKKPqBeoL+rWUdf0wlHnKaQbdKTor++Sgv9Qq8NQw9YHBq7IxQuDpzKxZ060n1G7x6h1jW+SErn03yHrySvSAH/QXLahfy+GuOjDyK4/FLmWWtV193+fzCj6Lep94cPPL02RXuQSGl65oGtr/j8ch/8VbPpgTdBIKem0F31/eKySuMDHpsQuv2bVR/rg0VPbesNWJaa5WPfBNpZSDotYJDyHxBj40NaCoWkfApGqoaBlhjxNCo9aOLw5bHtqxnfo/YOescskBWUMd5Ia+ldU9qr2+1tUdV73jqJebzzUjQLetD38FZv/3VF3qd5tvoqfBv2m5T2M60bRdP9Q7yKFfQrUNUK/X0uN2zUIq0lGnT5OgSyeQV7eWgx2ZxqKF8u9xGsYRCgfKN46D2ycl3pIkUagx5OjmuRdYi+Pczbqw4G692TPBqjSPdSfUUmh/WwLMlQTeBoOdm0AuaNWt2hjjuvqsVGfT45BYFt0ivbs1XhMzmMXKo+lxcUafd/EfoKxv0dV+HXQxW3zM92/D/SscMvlJMeVrwU7X4K9+6ARP2/Nt5m4bN6rM4WPd6/wl/oOcsTAzm9st7Pf2T0SMSA5k96v7secOV2aDHzwRUl8dONd7FynDQrVMX9VP+eFo09M3Z6+U7GzAz6tteskT9Vqj/w8/4titf0K2D5Ty3fML7M5XXJi9YGThT4Lr3cn+gG3lGBpT8IC2I1q2t+sKxfaSf4nTnF/ujKugFe82PP6dn33Zt7Dld+3X5OV0nOXOzZbX/uFH8b+W4oWNXfTxlwIMn1pooZgFOGCW9+78mOYDE5+gB/ssUCboJBH079G5+nHpWZ2F3Z5vJEZu4e+lTooMupoKrfpJ3vI599oaIcV41dnwh+EKQ99F4aZjyrc5jDFk/Km5svsrgB2quX/ihethz3GDfPT/qpNp9JDvfqbgq935nxG4j3zHIkTNGrBw6370q2LZnR17F89Kiu6RXtQdui1wIXTLptcArds/xvsumhoufQMgimkc5nx3luekS8RV3KoIurh8estF7qqGo058VXl/uF+d7naj63Lh3agbPaBTvvCJi3v/bvL/yFD/GJxZKIe0662/Bi7TOF3eWxpAGx5u/eA9Y53X61rn5JXE/qsNDJdesl97PTlwmDUD7zrkHcXF9r4Pc+Qrito737tr6LDjJd+8TN4gpjWY599fJu+0l58a3aej75iNnDNl76GvOImwxNyfflq+KD6Irutt3Ddq4+5fuuOnE5FUlisVh9h2WHAUnjJqzKvgk+t55hH3D/mXIBIKeu8QVx8VvRQe9j/txu/+8evLNE/O7Vemzfst7qWaeqDH286kt1+X3t3vkrzu32rT4Ak5/nWbXH95odt/8W9ddV/uCxOV3XrvF34DU81Yv6dJBeWnu2i34dtrvLb+anl/cZXKVxhsX7V2+mse1XzN+/t8n5tetm7+45pxH/HuYmdIkeO569GW/Xtfz1vy+9zb652VhT4cMaPDN0EHnVslvbvfvdm/Ln6v+FJqtili+8ouTj9shv3Nx/uSLG7Ues2/km6+0Lfj40xdmT86f3PMfezyrni1JVvreO8MarR6VX1Q//+idT/7izpBTWj7txi6cFf/j2v+qKS9FbtlxzaYlTy3Oz6/SeP60V6KmvL0sfhqojnwYIeaV1/KCVwFsit/S7RXlN92rpttq5aO749nDf3xqcn6LuvknNH55XttLKjThIiqPoOessunyfNGqoKc9F/R2bFJ83zHPtz6614f1ItfG2t64Qf/kr34g0OfN+MGFPM/sdH4fF3uXqLWsKfGPuiTGX4ZNnhdytgfbBIKes75J9aqeO0Hv4Izjez18CzERV/MKH4zeJoOe5mg9bIdGOkfVPRPfBonRb9Odjwqd01Kvhm8vptndP/OPFRlD0HOWWKGlzqlhG+RO0D+Wl8IIOEIk8K89c5ApBD37/eY8YdUH3OPcsfrOjMXznA+UB9wdE5wtJmp4sMgUgp6rWokVo8KXS86doIv3NiGrasSJy7X1nNM2jaBnP3Fh+nvhWxSIoaJNvXPnR7xjnetsUVfDg0WmEPRc5a7FFD7iN3eCLi68WROxibiOOnq80vaCoOfMta3ykjVJ/b1vUkXdQ4/XWdZbzhZ56a09j78EQc9V4urjLor5K3Iu6HdFX78Xu4xaXMsecancdoSgZz8xj7tnNfigXuItffzKwTLxQfhq7tZjzhbddDxaZAhBz1HDxdwr1cI3yZ2gi1VfLw7f99gsDjdGTei+/SDo2U/MUfRQ+DDOp8VbeudZL14PBoXf41XOFh/peLTIEIKeoy4T78gPCd8kd4Lurq3yR9jls6vEBFstraxA0LPf6+I5vSzsOf2f+smpnZPz8uWFXvnQW1y4frimB4xMIOg5Sqy6nB+xy5k7Qd8iXvzsRverPj1ugDtZ+HlWViDo2e9L9znd8AbVp089qoX/stW73e33GK3a/ggxcNS2z9T7uFEpBD03nSESNSdim9wJ+vmJ1T2Kz/3yeN+akmU3HLtR7MrYdt9WVlYg6NmvMPmcrrn5Ev9z+vkXX048p49uF1w1ofPLxzb1nXxqdd+XnRJT4GbJQapsVc1OQczkjexyrJ36Sq3cCbp/+dPixzu1WV/763m172lzYU/fLOd7WdmBoOcA3wrJxQM7tfk99py+qs11W73P6eLEpR3OxO9CnXUvtPm59ryvaw/6oOXR3pVvmiv397GtIOi5Sawj1TfqEpQcCnor1TJnQXk3WVmCoOeAGo3TeE4XJdfJbSKtsKLQNVve02araql+g+yhZ6O3itMY4JJDQbeaieUsI/RIe42ubR5BzwWndk/5nD7mes/2M1an3P7siInksC0g6DnJWYghcqLH3Aq6VXpLcoVIlaIly62sQdBzQul53aKf09XO8W0/clFw0WO/zodndHk8aEDQc5K48Hpx5CqHORV0y2ow5sbQl7IdPn3eyiIEPUecvlbM6KpwwuEHS9ufs2Fg6PazNymHv2ObQtAB1/Jna+/XL/A61qLn25v3zY5F1pCDzj/2v4d2CT6nH/juh0tDntPH33TV6uCOet2b77nlEtMPHBVB0AGf6i+tufbJ3luqVv2y97NXn3lwGT8ebO8WeJ/TQ1I+pwvO2mns1Xv3/rJq1S2997l23/N5P7vdIOgAAGQBgg4AQBYg6AAAZAGCDgBAFiDoAABkAYIOAEAWIOgAAGQBgg4AQBYg6AAAZAGCDgBAFiDoAABkAYIOAEAWIOgAAGQBgg4AQBYg6AAAZAGCDgBAFiDoAABkAYIOAEAWIOgAAGQBgg4AQBYg6AAAZAGCDgBAFiDoAABkAYIOAEAWIOgAAGQBgg4AQBYg6AAAZAGCDgBAFiDoAABkAYIOaHXknqmU8RsAkAEEHdDqb3Yq1fkNAMgAgg5oRdABmEHQAa0IOgAzCDqgFUEHYAZBB7Qi6ADMIOiAVgQdgBkEHdCKoAMwg6ADWhF0AGYQdEArgg7ADIIOaEXQAZhB0AGtCDoAMwg6oBVBB2AGQQe0IugAzCDogFYEHYAZBB3QiqADMIOgA1oRdABmEHRAK4IOwAyCDmhF0AGYQdABrQg6ADMIOqAVQQdgBkEHtCLoAMwg6IBWBB2AGQQd0IqgAzCDoANaEXQAZhB0QCuCDsAMgg5oRdABmEHQAa0IOgAzCDqgFUEHYAZBB7Qi6ADMIOiAVgQdgBkEHdCKoAMwg6ADWhF0AGYQdEArgg7ADIIOaEXQAZhB0AGtCDoAMwg6oBVBB2AGQQe0IugAzCDogFYEHYAZBB3QiqADMIOgA1oRdABmEHRAK4IOwAyCDmhF0AGYQdABrQg6ADMIOqAVQQdgBkEHtCLoAMwg6IBWBB2AGQQd0IqgAzCDoANaEXQAZhB0QCuCDsAMgg5oRdABmEHQAa0IOgAzCDqgFUEHYAZBB7Qi6ADMIOiAVgQdgBkEHdCKoAMwg6ADWhF0AGYQdEArgg7ADIIOaEXQAZhB0AGtCDoAMwg6oBVBB2AGQQe0IugAzCDogFYEHYAZBB3QiqADMIOgA1oRdABmEHRAK4IOwAyCDmhF0AGYQdABrQg6ADMIOqAVQQdgBkEHtCLoAMwg6IBWBB2AGQQd0IqgAzCDoANaEXQAZhB0QCuCDsAMgg5oRdABmEHQAa0IOgAzCDqgFUEHYAZBB7Qi6ADMIOiAVgQdgBkEHdCKoAMwg6ADWhF0AGYQdEArgg7ADIIOaEXQAZhB0AGtCDoAMwg6oBVBB2AGQQe0IugAzCDogFYEHYAZBB3QiqADMIOgA1oRdABmEHRAK4IOwAyCDmhF0AGYQdABrQg6ADMIOqAVQQdgBkEHtCLoAMwg6IBWBB2AGQQd0IqgAzCDoANaEXQAZhB0QCuCDsAMgg5oRdABmEHQAa0IOgAzCDqgFUEHYAZBB7Qi6ADMIOiAVgQdgBkEHdCKoAMwg6ADWhF0AGYQdEArgg7ADIIOaEXQAZhB0AGtCDoAMwg6oBVBB2AGQQe0IugAzCDogFYEHYAZBB3QiqADMIOgA1oRdABmEHRAK4IOwAyCDmhF0AGYQdABrQg6ADMIOqAVQQdgBkEHtCLoAMwg6IBWBB2AGQQd0IqgAzCDoANaEXQAZhB0QCuCDsAMgg5oRdABmEHQAa0IOgAzCDqgFUEHYAZBB7Qi6ADMIOiAVgQdgBkEHdCKoAMwg6ADWhF0AGYQdEArgg7ADIIOaEXQAZhB0AGtCDoAMwg6oBVBB2AGQQe0IugAzCDogFYEHYAZBB3QiqADMIOgA1oRdABmEHRAK4IOwAyCDmhF0AGYQdABrQg6ADMIOqAVQQdgBkEHtCLoAMwg6IBWBB2AGQQd0IqgAzCDoANaEXQAZhB0QCuCDsAMgg5oRdABmEHQAa0IOgAzCDqgFUEHYAZBB7Qi6ADMIOiAVgQdgBkEHdCKoAMwg6ADWhF0AGYQdEArgg7ADIIOaEXQAZhB0AGtCDoAMwg6oBVBB2AGQQe0IugAzCDogFYEHYAZBB3QiqADMIOgA1oRdABmEHRAK4IOwAyCDmhF0AGYQdABrQg6ADMIOqAVQQdgBkEHtCLoAMwg6IBWBB2AGQQd0IqgAzCDoANaEXQAZhB0QCuCDsAMgg5oRdABmEHQAa0IOgAzCDqgFUEHYAZBB7Qi6ADMIOiAVgQdgBkEHdCKoAMwg6ADWhF0AGYQdEArgg7ADIIOaEXQAZhB0AGtCDoAMwg6oBVBB2AGQQe0IugAzCDogFYEHYAZBB3QiqADMIOgA1oRdABmEHRAK4IOwAyCDmhF0AGYQdABrQg6ADMIOqAVQQdgBkEHtCLoAMwg6IBWBB2AGQQd0IqgAzCDoANaEXQAZhB0QCuCDsAMgg5oRdABmEHQAa0IOgAzCDqgFUEHYAZBB7Qi6ADMIOiAVgQdgBkEHdCKoAMwg6ADWhF0AGYQdEArgg7ADIIOaEXQAZhB0AGtCDoAMwg6oBVBB2AGQQe0IugAzCDogFYEHYAZBB3QiqADMIOgA1oRdABmEHRAK4IOwAyCDmhF0AGYQdABrQg6ADMIOqAVQQdgBkEHtCLoAMwg6IBWBB2AGQQd0IqgAzCDoANaEXQAZhB0QCuCDsAMgg5oRdABmEHQAa0IOgAzCDqgFUEHYAZBB7Qi6ADMIOiAVgQdgBkEHdCKoAMwg6ADWhF0AGYQdEArgg7ADIIOaEXQAZhB0AGtCDoAMwg6oBVBB2AGQQe0IugAzCDogFYEHYAZBB3QiqADMIOgA1oRdABmEHRAK4IOwAyCDmhF0AGYQdABrQg6ADMIOqAVQQdgBkEHtCLoAMwg6IBWBB2AGQQd0IqgAzCDoANaEXQAZhB0QCuCDsAMgg5oRdABmEHQAa0IOgAzCDqgFUEHYAZBB7Qi6ADMIOiAVgQdgBkEHdCKoAMwg6ADWhF0AGYQdEArgg7ADIIOaEXQAZhB0IG/OOhjdgSAyts51YtNTV7uAa1BBwAjCDpA0AFkAYIOEHQAWYCgAwQdQBYg6ABBB5AFCDpA0AFkAYIOEHQAWYCgAwQdQBYg6ABBB5AFCDpA0AFkAYIOEHQAWYCgAwQdQBYg6ABBB5AFCDpA0AFkAYIOEHQAWYCgAwQdQBYg6ABBB5AFCDpA0AFkAYIOEHQAWYCgAwQdQBYg6ABBB5AFCDpA0AFkAYIOEHQAWYCgAwQdQBYg6ABBB5AFCDpA0AFkAYIOEHQAWYCgAwQdQBYg6ABBB5AFCDpA0AFkAYIOEHQAWYCgAwQdQBYg6ABBB5AFCDpQGaU1AGCb0J5XcwAAAAAAAAAAAAAAAAAAAAAAAAAAAAAAAAAAAAAAAAAAAAAAAAAAAAAAAAAAAAAAAAAAAAAAAAAAAAAAAAAAAAAAAAAAAAAAAAAAAAAAAAAAAAAAAAAAAAAAAAAAAAAAAAAAAAAAAAAAAAAAAAAAAACAtU35PyeCDGnu1b+HAAAAAElFTkSuQmCC;rotation=-90;" parent="1" vertex="1">
          <mxGeometry x="171.3" y="130" width="168.4" height="105" as="geometry" />
        </mxCell>
      </root>
    </mxGraphModel>
  </diagram>
</mxfile>
